<svg width="64" height="63" viewBox="0 0 64 63" fill="none" xmlns="http://www.w3.org/2000/svg">
<path d="M58.2385 10.1364C58.9285 8.44492 58.5342 6.49764 57.2528 5.20419C55.9714 3.91074 54.0423 3.51276 52.3666 4.20923L2.80079 24.677C0.801255 25.5014 -0.325242 27.6334 0.0831128 29.7655C0.491468 31.8976 2.35019 33.4326 4.50461 33.4326H29.2875V58.4488C29.2875 60.6235 30.8083 62.4855 32.9205 62.9119C35.0327 63.3383 37.1449 62.187 37.9616 60.1687L58.2385 10.1364Z" fill="#4F86FF"/>
<g clip-path="url(#clip0_841_264)">
<path d="M49 28.5511C49 20.0544 42.0604 13.1665 33.5 13.1665C24.9396 13.1665 18 20.0544 18 28.5511C18 37.0478 24.9396 43.9357 33.5 43.9357C42.0604 43.9357 49 37.0478 49 28.5511Z" fill="#A2BFFF"/>
<path d="M36.1341 14.3975H34.5841C27.907 14.3975 22.4941 19.77 22.4941 26.3975C22.4941 33.0249 27.907 38.3975 34.5841 38.3975H36.1341C42.8113 38.3975 48.2241 33.0249 48.2241 26.3975C48.2241 19.77 42.8113 14.3975 36.1341 14.3975Z" fill="#568BFF"/>
<mask id="mask0_841_264" style="mask-type:luminance" maskUnits="userSpaceOnUse" x="28" y="19" width="15" height="16">
<path d="M42.6455 26.9356C42.6455 22.9846 39.4186 19.7817 35.438 19.7817C31.4574 19.7817 28.2305 22.9846 28.2305 26.9356C28.2305 30.8865 31.4574 34.0894 35.438 34.0894C39.4186 34.0894 42.6455 30.8865 42.6455 26.9356Z" fill="white"/>
</mask>
<g mask="url(#mask0_841_264)">
<path d="M42.6455 26.9356C42.6455 22.9846 39.4186 19.7817 35.438 19.7817C31.4574 19.7817 28.2305 22.9846 28.2305 26.9356C28.2305 30.8865 31.4574 34.0894 35.438 34.0894C39.4186 34.0894 42.6455 30.8865 42.6455 26.9356Z" fill="#055BFF"/>
<path d="M42.9121 27.3202C42.9121 26.31 42.7117 25.3097 42.3222 24.3765C41.9327 23.4433 41.3618 22.5953 40.6421 21.8809C39.9226 21.1667 39.0682 20.6 38.1279 20.2135C37.1876 19.8269 36.1798 19.6279 35.1621 19.6279C34.1444 19.6279 33.1366 19.8269 32.1963 20.2135C31.256 20.6 30.4017 21.1667 29.682 21.8809C28.9624 22.5953 28.3915 23.4433 28.002 24.3765C27.6126 25.3097 27.4121 26.31 27.4121 27.3202H30.914C30.914 26.7665 31.0239 26.2182 31.2374 25.7067C31.4509 25.1951 31.7638 24.7302 32.1582 24.3387C32.5527 23.9471 33.021 23.6367 33.5365 23.4247C34.0518 23.2128 34.6042 23.1037 35.1621 23.1037C35.7199 23.1037 36.2724 23.2128 36.7877 23.4247C37.3033 23.6367 37.7715 23.9471 38.166 24.3387C38.5605 24.7302 38.8734 25.1951 39.0869 25.7067C39.3003 26.2182 39.4102 26.7665 39.4102 27.3202H42.9121Z" fill="url(#paint0_linear_841_264)"/>
</g>
<path d="M47.0472 21.0752C48.7243 24.069 49.3468 27.5327 48.8159 30.9175C48.285 34.3022 46.6313 37.4142 44.1169 39.7605C41.6024 42.1067 38.3708 43.5528 34.9344 43.8698C31.4981 44.1867 28.0535 43.3564 25.1465 41.5101L28.2903 36.6333C30.1033 37.7847 32.2516 38.3025 34.3947 38.105C36.5379 37.9073 38.5534 37.0053 40.1215 35.5421C41.6898 34.0788 42.7212 32.1379 43.0522 30.027C43.3833 27.9161 42.995 25.7558 41.9491 23.8887L47.0472 21.0752Z" fill="url(#paint1_linear_841_264)"/>
<path d="M39.7974 21.4229C40.9466 22.3212 41.8568 23.5339 42.4352 24.9381C43.0137 26.3422 43.24 27.8878 43.0912 29.4176C42.9422 30.9475 42.4236 32.4075 41.5877 33.649C40.7516 34.8905 39.6283 35.8698 38.3316 36.487L36.707 33.0051C37.4138 32.6687 38.1862 31.9836 38.6419 31.3068C39.0974 30.6301 39.46 29.5065 39.5412 28.6727C39.6223 27.8387 39.4775 26.9151 39.1621 26.1498C38.8468 25.3844 37.3334 22.8985 36.707 22.4088L39.7974 21.4229Z" fill="url(#paint2_linear_841_264)"/>
<path d="M38.3316 36.4866L36.7071 33.0047L36.5753 33.1069L36.2542 33.2092L35.8196 33.301L35.4493 33.3929H34.9812H34.601H34.2206H33.8635L33.3202 33.301L32.7769 33.2092L32.2241 33.058L31.6712 32.9067L30.7315 32.3394L30.6035 32.6274L32.4043 35.9647L36.4715 37.4343L38.2723 36.4866H38.3316Z" fill="url(#paint3_linear_841_264)"/>
</g>
<defs>
<linearGradient id="paint0_linear_841_264" x1="29.1117" y1="24.4154" x2="39.3774" y2="24.8508" gradientUnits="userSpaceOnUse">
<stop offset="0.208333" stop-color="#045AFE"/>
<stop offset="0.822917" stop-color="#408FE5"/>
</linearGradient>
<linearGradient id="paint1_linear_841_264" x1="33.5004" y1="13.1666" x2="33.5004" y2="43.9358" gradientUnits="userSpaceOnUse">
<stop offset="0.442708" stop-color="#568BFF"/>
<stop offset="0.817708" stop-color="#A2BFFF"/>
</linearGradient>
<linearGradient id="paint2_linear_841_264" x1="38.9367" y1="32.7878" x2="38.644" y2="22.8487" gradientUnits="userSpaceOnUse">
<stop stop-color="#578CFF"/>
<stop offset="0.52904" stop-color="#1874FE"/>
<stop offset="0.995" stop-color="#418FE6"/>
</linearGradient>
<linearGradient id="paint3_linear_841_264" x1="38.9368" y1="32.7874" x2="38.644" y2="22.8483" gradientUnits="userSpaceOnUse">
<stop stop-color="#568BFF"/>
<stop offset="0.52904" stop-color="#1874FE"/>
<stop offset="1" stop-color="#3F77E4"/>
</linearGradient>
<clipPath id="clip0_841_264">
<rect width="31" height="36" fill="white" transform="translate(18 8)"/>
</clipPath>
</defs>
</svg>
