<?xml version="1.0" encoding="iso-8859-1"?>
<!-- Generator: Adobe Illustrator 27.0.0, SVG Export Plug-In . SVG Version: 6.00 Build 0)  -->
<svg version="1.1" id="Layer_1" xmlns="http://www.w3.org/2000/svg" xmlns:xlink="http://www.w3.org/1999/xlink" x="0px" y="0px"
	 viewBox="0 0 500 500" style="enable-background:new 0 0 500 500;" xml:space="preserve">
<g id="watermark_1_">
	<g>
		<g id="watermark" style="opacity:0.61;">
			<g>
				<g>
					<g>
						<g>
							<polygon style="fill:#FFFFFF;" points="213.765,461.172 208.204,474.017 205.268,474.017 199.726,461.172 202.938,461.172 
								206.846,470.347 210.81,461.172 							"/>
						</g>
						<g>
							<path style="fill:#FFFFFF;" d="M223.507,469.741h-7.469c0.275,1.23,1.321,1.982,2.826,1.982c1.046,0,1.798-0.312,2.477-0.954
								l1.523,1.651c-0.917,1.046-2.294,1.597-4.074,1.597c-3.413,0-5.634-2.147-5.634-5.083c0-2.954,2.257-5.083,5.267-5.083
								c2.899,0,5.138,1.945,5.138,5.12C223.562,469.191,223.526,469.503,223.507,469.741 M216.002,468.071h4.863
								c-0.202-1.248-1.138-2.055-2.422-2.055C217.139,466.016,216.204,466.805,216.002,468.071"/>
						</g>
						<g>
							<path style="fill:#FFFFFF;" d="M224.735,468.934c0-2.973,2.294-5.083,5.505-5.083c2.074,0,3.707,0.899,4.423,2.514
								l-2.22,1.193c-0.532-0.936-1.321-1.358-2.221-1.358c-1.45,0-2.587,1.009-2.587,2.734c0,1.725,1.138,2.734,2.587,2.734
								c0.899,0,1.688-0.404,2.221-1.358l2.22,1.211c-0.716,1.578-2.349,2.495-4.423,2.495
								C227.029,474.017,224.735,471.907,224.735,468.934"/>
						</g>
						<g>
							<path style="fill:#FFFFFF;" d="M242.828,473.393c-0.587,0.422-1.45,0.624-2.331,0.624c-2.33,0-3.688-1.193-3.688-3.542
								v-4.055h-1.523v-2.202h1.523v-2.404h2.863v2.404h2.459v2.202h-2.459v4.019c0,0.844,0.458,1.303,1.229,1.303
								c0.422,0,0.844-0.128,1.156-0.367L242.828,473.393z"/>
						</g>
					</g>
					<g>
						<path style="fill:#FFFFFF;" d="M262.474,463.997v2.643c-0.238-0.018-0.422-0.037-0.642-0.037
							c-1.578,0-2.624,0.862-2.624,2.753v4.661h-2.863v-9.873h2.734v1.303C259.776,464.493,260.951,463.997,262.474,463.997"/>
					</g>
					<g>
						<path style="fill:#FFFFFF;" d="M263.299,472.53l1.009-2.239c1.083,0.789,2.697,1.339,4.239,1.339
							c1.762,0,2.477-0.587,2.477-1.376c0-2.404-7.469-0.752-7.469-5.524c0-2.184,1.762-4,5.413-4c1.615,0,3.267,0.385,4.459,1.138
							l-0.918,2.257c-1.193-0.679-2.422-1.009-3.56-1.009c-1.761,0-2.44,0.66-2.44,1.468c0,2.367,7.468,0.734,7.468,5.45
							c0,2.147-1.78,3.982-5.45,3.982C266.492,474.017,264.437,473.411,263.299,472.53"/>
					</g>
					<g>
						<path style="fill:#FFFFFF;" d="M285.428,469.741h-7.469c0.275,1.23,1.321,1.982,2.826,1.982c1.046,0,1.798-0.312,2.477-0.954
							l1.523,1.651c-0.918,1.046-2.294,1.597-4.074,1.597c-3.413,0-5.634-2.147-5.634-5.083c0-2.954,2.257-5.083,5.267-5.083
							c2.9,0,5.138,1.945,5.138,5.12C285.484,469.191,285.447,469.503,285.428,469.741 M277.923,468.071h4.863
							c-0.202-1.248-1.138-2.055-2.422-2.055C279.061,466.016,278.125,466.805,277.923,468.071"/>
					</g>
					<g>
						<path style="fill:#FFFFFF;" d="M297.007,469.741h-7.469c0.275,1.23,1.321,1.982,2.826,1.982c1.046,0,1.798-0.312,2.477-0.954
							l1.523,1.651c-0.918,1.046-2.294,1.597-4.074,1.597c-3.413,0-5.634-2.147-5.634-5.083c0-2.954,2.257-5.083,5.267-5.083
							c2.899,0,5.138,1.945,5.138,5.12C297.062,469.191,297.025,469.503,297.007,469.741 M289.501,468.071h4.863
							c-0.202-1.248-1.138-2.055-2.422-2.055C290.639,466.016,289.703,466.805,289.501,468.071"/>
					</g>
					<g>
						<polygon style="fill:#FFFFFF;" points="303.208,470.145 301.831,471.503 301.831,474.017 298.969,474.017 298.969,460.401 
							301.831,460.401 301.831,468.108 306.016,464.144 309.429,464.144 305.318,468.328 309.796,474.017 306.327,474.017 						"/>
					</g>
					<g>
						<path style="fill:#FFFFFF;" d="M256.601,475.359L256.601,475.359l-2.86-2.86c-0.435,0.508-0.953,0.943-1.534,1.284
							c-0.092,0.069-0.186,0.136-0.283,0.199l3.027,3.027c0.456,0.456,1.195,0.456,1.65,0
							C257.057,476.554,257.057,475.815,256.601,475.359"/>
					</g>
					<g>
						<path style="fill:#FFFFFF;" d="M249.984,463.244c0.221-0.173,0.495-0.281,0.797-0.281c0.042,0,0.083,0.002,0.124,0.006
							c-0.214-0.156-0.478-0.249-0.764-0.249c-0.395,0-0.744,0.18-0.981,0.458c-0.051,0-0.1,0.006-0.151,0.008
							c0.039-0.077,0.064-0.162,0.064-0.255c0-0.234-0.143-0.434-0.346-0.519c0.087,0.126,0.138,0.279,0.138,0.445
							c0,0.122-0.031,0.237-0.081,0.341c-2.811,0.201-5.03,2.539-5.03,5.4c0,2.993,2.426,5.42,5.42,5.42
							c2.993,0,5.42-2.426,5.42-5.42C254.595,465.879,252.593,463.635,249.984,463.244 M247.983,464.656
							c0.435,0,0.844,0.112,1.199,0.309c0.374-0.245,0.82-0.387,1.299-0.387c0.711,0,1.348,0.312,1.784,0.806
							c-0.435-0.379-1.004-0.61-1.627-0.61c-0.449,0-0.87,0.12-1.234,0.329c-0.079,0.046-0.156,0.096-0.229,0.15
							c-0.065-0.048-0.133-0.093-0.204-0.134c-0.369-0.219-0.8-0.344-1.26-0.344c-0.3,0-0.588,0.054-0.854,0.152
							C247.196,464.754,247.578,464.656,247.983,464.656 M251.772,469.098c0.115,0.305,0.181,0.634,0.181,0.979
							c0,1.534-1.244,2.777-2.778,2.777c-1.534,0-2.777-1.243-2.777-2.777c0-0.345,0.066-0.674,0.181-0.979
							c-0.62-0.382-1.035-1.064-1.035-1.846c0-1.197,0.971-2.168,2.168-2.168c0.565,0,1.078,0.218,1.463,0.572
							c0.386-0.354,0.899-0.572,1.464-0.572c1.197,0,2.168,0.971,2.168,2.168C252.807,468.034,252.392,468.716,251.772,469.098"/>
					</g>
					<g>
						<path style="fill:#FFFFFF;" d="M251.666,467.061c0,0.497-0.404,0.901-0.901,0.901c-0.497,0-0.901-0.404-0.901-0.901
							s0.404-0.901,0.901-0.901c0.101,0,0.197,0.017,0.287,0.047c-0.03,0.062-0.045,0.132-0.045,0.204
							c0,0.273,0.221,0.494,0.494,0.494c0.05,0,0.099-0.008,0.146-0.022C251.66,466.941,251.666,467,251.666,467.061"/>
					</g>
					<g>
						<path style="fill:#FFFFFF;" d="M248.255,467.061c0,0.376-0.305,0.681-0.681,0.681c-0.376,0-0.681-0.305-0.681-0.681
							s0.305-0.681,0.681-0.681c0.076,0,0.149,0.013,0.217,0.035c-0.023,0.047-0.034,0.1-0.034,0.155
							c0,0.206,0.167,0.374,0.374,0.374c0.038,0,0.075-0.006,0.11-0.017C248.25,466.97,248.255,467.015,248.255,467.061"/>
					</g>
					<g>
						<g>
							<g>
								<rect x="242.908" y="467.83" style="fill:#FFFFFF;" width="0.616" height="0.616"/>
							</g>
							<g>
								<rect x="254.827" y="467.83" style="fill:#FFFFFF;" width="0.616" height="0.616"/>
							</g>
							<g>
								<path style="fill:#FFFFFF;" d="M255.205,468.082h-0.14c0-3.248-2.642-5.89-5.89-5.89c-3.248,0-5.89,2.642-5.89,5.89h-0.14
									c0-1.611,0.627-3.125,1.766-4.264c1.139-1.139,2.653-1.766,4.264-1.766c1.611,0,3.125,0.627,4.264,1.766
									C254.578,464.957,255.205,466.471,255.205,468.082"/>
							</g>
						</g>
						<g>
							<rect x="248.868" y="461.814" style="fill:#FFFFFF;" width="0.616" height="0.616"/>
						</g>
						<g>
							<rect x="244.95" y="462.052" style="fill:#FFFFFF;" width="8.45" height="0.14"/>
						</g>
						<g>
							<path style="fill:#FFFFFF;" d="M245.174,462.15c0,0.108-0.088,0.196-0.196,0.196c-0.108,0-0.196-0.088-0.196-0.196
								c0-0.108,0.088-0.196,0.196-0.196C245.086,461.954,245.174,462.042,245.174,462.15"/>
						</g>
						<g>
							<path style="fill:#FFFFFF;" d="M253.596,462.15c0,0.108-0.088,0.196-0.196,0.196c-0.108,0-0.196-0.088-0.196-0.196
								c0-0.108,0.088-0.196,0.196-0.196C253.509,461.954,253.596,462.042,253.596,462.15"/>
						</g>
					</g>
				</g>
				<g>
					<path style="fill:#FFFFFF;" d="M314.356,473.409c0,1.559-2.364,1.559-2.364,0C311.993,471.851,314.356,471.851,314.356,473.409
						z"/>
				</g>
				<g>
					<g>
						<g>
							<path style="fill:#FFFFFF;" d="M161.739,466.549l1.772,6.088l1.855-6.088h2.215l-2.823,8.14h-2.33l-0.837-2.396l-0.722-2.708
								l-0.722,2.708l-0.837,2.396h-2.33l-2.839-8.14h2.231l1.855,6.088l1.756-6.088H161.739z"/>
						</g>
						<g>
							<path style="fill:#FFFFFF;" d="M176.713,466.549l1.772,6.088l1.855-6.088h2.215l-2.823,8.14h-2.33l-0.837-2.396l-0.722-2.708
								l-0.722,2.708l-0.837,2.396h-2.33l-2.839-8.14h2.231l1.855,6.088l1.756-6.088H176.713z"/>
						</g>
						<g>
							<path style="fill:#FFFFFF;" d="M191.687,466.549l1.772,6.088l1.855-6.088h2.215l-2.823,8.14h-2.33l-0.837-2.396l-0.722-2.708
								l-0.722,2.708l-0.837,2.396h-2.33l-2.839-8.14h2.231l1.855,6.088l1.756-6.088H191.687z"/>
						</g>
					</g>
					<g>
						<path style="fill:#FFFFFF;" d="M200.908,473.52c0,1.559-2.364,1.559-2.364,0C198.545,471.962,200.908,471.962,200.908,473.52z
							"/>
					</g>
					<g>
						<path style="fill:#FFFFFF;" d="M322.71,473.409c-0.935,0.919-1.919,1.28-3.117,1.28c-2.346,0-4.3-1.411-4.3-4.282
							s1.953-4.284,4.3-4.284c1.149,0,2.035,0.329,2.921,1.199l-1.264,1.329c-0.476-0.428-1.066-0.64-1.623-0.64
							c-1.346,0-2.33,0.985-2.33,2.396c0,1.542,1.05,2.362,2.297,2.362c0.64,0,1.28-0.18,1.772-0.672L322.71,473.409z"/>
					</g>
					<g>
						<path style="fill:#FFFFFF;" d="M331.805,470.472c0,2.33-1.591,4.217-4.217,4.217c-2.626,0-4.201-1.887-4.201-4.217
							c0-2.314,1.609-4.217,4.185-4.217C330.149,466.255,331.805,468.158,331.805,470.472z M325.389,470.472
							c0,1.231,0.739,2.38,2.199,2.38c1.46,0,2.199-1.149,2.199-2.38c0-1.215-0.854-2.396-2.199-2.396
							C326.144,468.077,325.389,469.258,325.389,470.472z"/>
					</g>
					<g>
						<path style="fill:#FFFFFF;" d="M338.572,474.689v-4.332c0-1.068-0.559-2.035-1.658-2.035c-1.082,0-1.722,0.967-1.722,2.035
							v4.332h-2.003v-8.107h1.855l0.148,0.985c0.426-0.82,1.362-1.116,2.133-1.116c0.969,0,1.937,0.394,2.396,1.51
							c0.723-1.149,1.658-1.478,2.708-1.478c2.297,0,3.43,1.412,3.43,3.84v4.365h-2.003v-4.365c0-1.066-0.442-1.97-1.526-1.97
							c-1.082,0-1.756,0.935-1.756,2.003v4.332H338.572z"/>
					</g>
				</g>
			</g>
		</g>
		<g style="opacity:0.61;">
			<g>
				<g>
					<path style="fill:#FFFFFF;" d="M345.988,431.299c-0.006-1.224-0.959-2.121-2.189-2.14c-0.924-0.014-0.832,0.12-0.834-0.867
						c-0.003-1.097-0.007-2.194,0.003-3.292c0.003-0.379-0.112-0.691-0.362-0.976c-2.342-2.668-4.678-5.342-7.019-8.011
						c-0.12-0.137-0.275-0.244-0.414-0.366c-6.214,0-12.427,0-18.641,0c-0.794,0.293-1.14,0.868-1.138,1.709
						c0.01,3.748,0.004,7.496,0.004,11.243c0,0.556-0.003,0.589-0.55,0.551c-1.497-0.102-2.516,0.986-2.497,2.492
						c0.044,3.476,0.013,6.953,0.014,10.429c0.001,1.58,0.867,2.443,2.45,2.449c0.582,0.002,0.582,0.002,0.582,0.6
						c0,2.219-0.001,4.438,0.001,6.657c0.001,1.192,0.58,1.771,1.768,1.771c8.013,0.001,16.027,0.001,24.04,0
						c1.168,0,1.755-0.583,1.757-1.745c0.002-2.256,0-4.512,0.001-6.768c0-0.512,0.002-0.511,0.52-0.515
						c0.271-0.002,0.541,0.008,0.809-0.058c0.996-0.246,1.69-1.044,1.694-2.069C346.003,438.696,346.005,434.997,345.988,431.299z
						 M317.537,417.162c5.337,0,10.674,0,16.01,0c0.548,0,0.554,0.007,0.554,0.561c0.001,2.243-0.001,4.486,0.001,6.73
						c0.001,0.811,0.249,1.059,1.06,1.059c1.91,0.001,3.821,0,5.731,0.001c0.458,0,0.479,0.021,0.481,0.483
						c0.003,0.887,0.002,1.775,0,2.662c-0.001,0.477-0.024,0.498-0.504,0.499c-3.895,0.001-7.79,0-11.684,0
						c-3.882,0-7.765,0-11.647,0c-0.55,0-0.552-0.001-0.552-0.561c-0.001-3.624-0.001-7.247,0-10.871
						C316.987,417.166,316.991,417.162,317.537,417.162z M340.822,451.579c-3.883,0.001-7.766,0-11.65,0c-3.871,0-7.742,0-11.613,0
						c-0.572,0-0.574-0.002-0.574-0.579c-0.001-1.997-0.001-3.994,0.001-5.991c0-0.464,0.023-0.486,0.478-0.487
						c7.803-0.001,15.607-0.001,23.41,0c0.478,0,0.499,0.02,0.499,0.503c0.002,1.997,0.001,3.994,0,5.991
						C341.375,451.574,341.37,451.579,340.822,451.579z"/>
				</g>
				<g>
					<g>
						<rect x="327.418" y="417.053" style="fill:#FFFFFF;" width="1.757" height="1.054"/>
					</g>
					<g>
						<rect x="325.662" y="418.107" style="fill:#FFFFFF;" width="1.757" height="1.054"/>
					</g>
					<g>
						<rect x="327.418" y="419.161" style="fill:#FFFFFF;" width="1.757" height="1.054"/>
					</g>
					<g>
						<rect x="325.662" y="420.215" style="fill:#FFFFFF;" width="1.757" height="1.054"/>
					</g>
					<g>
						<rect x="327.418" y="421.269" style="fill:#FFFFFF;" width="1.757" height="1.054"/>
					</g>
					<g>
						<rect x="325.662" y="422.323" style="fill:#FFFFFF;" width="1.757" height="1.054"/>
					</g>
					<g>
						<rect x="327.418" y="423.378" style="fill:#FFFFFF;" width="1.757" height="1.054"/>
					</g>
					<g>
						<rect x="325.662" y="424.432" style="fill:#FFFFFF;" width="1.757" height="1.054"/>
					</g>
					<g>
						<rect x="327.418" y="425.486" style="fill:#FFFFFF;" width="1.757" height="1.054"/>
					</g>
					<g>
						<rect x="325.662" y="426.54" style="fill:#FFFFFF;" width="1.757" height="1.054"/>
					</g>
					<g>
						<rect x="327.418" y="427.594" style="fill:#FFFFFF;" width="1.757" height="1.054"/>
					</g>
					<g>
						<rect x="325.662" y="428.648" style="fill:#FFFFFF;" width="1.757" height="1.054"/>
					</g>
				</g>
			</g>
			<g>
				<path style="fill:#FFFFFF;" d="M187.637,431.299c-0.006-1.224-0.959-2.121-2.189-2.14c-0.924-0.014-0.832,0.12-0.834-0.867
					c-0.003-1.097-0.007-2.194,0.003-3.292c0.003-0.379-0.112-0.691-0.362-0.976c-2.342-2.668-4.678-5.342-7.019-8.011
					c-0.12-0.137-0.275-0.244-0.414-0.366c-6.214,0-12.427,0-18.641,0c-0.794,0.293-1.14,0.868-1.138,1.709
					c0.01,3.748,0.004,7.496,0.004,11.243c0,0.556-0.003,0.589-0.55,0.551c-1.497-0.102-2.516,0.986-2.497,2.492
					c0.044,3.476,0.013,6.953,0.014,10.429c0.001,1.58,0.867,2.443,2.45,2.449c0.582,0.002,0.582,0.002,0.582,0.6
					c0,2.219-0.001,4.438,0.001,6.657c0.001,1.192,0.58,1.771,1.768,1.771c8.013,0.001,16.027,0.001,24.04,0
					c1.168,0,1.755-0.583,1.757-1.745c0.002-2.256,0-4.512,0.001-6.768c0-0.512,0.002-0.511,0.52-0.515
					c0.271-0.002,0.541,0.008,0.809-0.058c0.996-0.246,1.69-1.044,1.694-2.069C187.652,438.696,187.655,434.997,187.637,431.299z
					 M159.187,417.162c5.337,0,10.674,0,16.01,0c0.548,0,0.554,0.007,0.554,0.561c0.001,2.243-0.001,4.486,0.001,6.73
					c0.001,0.811,0.249,1.059,1.06,1.059c1.91,0.001,3.821,0,5.731,0.001c0.458,0,0.479,0.021,0.481,0.483
					c0.003,0.887,0.002,1.775,0,2.662c-0.001,0.477-0.024,0.498-0.504,0.499c-3.895,0.001-7.79,0-11.684,0
					c-3.882,0-7.765,0-11.647,0c-0.55,0-0.552-0.001-0.552-0.561c-0.001-3.624-0.001-7.247,0-10.871
					C158.636,417.166,158.64,417.162,159.187,417.162z M182.472,451.579c-3.883,0.001-7.766,0-11.65,0c-3.871,0-7.742,0-11.613,0
					c-0.572,0-0.574-0.002-0.574-0.579c-0.001-1.997-0.001-3.994,0.001-5.991c0-0.464,0.023-0.486,0.478-0.487
					c7.803-0.001,15.607-0.001,23.41,0c0.478,0,0.499,0.02,0.499,0.503c0.002,1.997,0.001,3.994,0,5.991
					C183.024,451.574,183.019,451.579,182.472,451.579z"/>
			</g>
			<g>
				<path style="fill:#FFFFFF;" d="M159.779,440.669v-7.897h2.779c0.375,0,0.726,0.061,1.053,0.182
					c0.327,0.121,0.612,0.292,0.855,0.513c0.242,0.221,0.434,0.483,0.573,0.789c0.14,0.305,0.21,0.642,0.21,1.009
					c0,0.375-0.07,0.715-0.21,1.02c-0.14,0.305-0.331,0.568-0.573,0.789c-0.243,0.221-0.528,0.392-0.855,0.513
					c-0.327,0.121-0.678,0.182-1.053,0.182h-1.29v2.901H159.779z M162.58,436.356c0.39,0,0.684-0.111,0.882-0.331
					c0.199-0.22,0.298-0.474,0.298-0.761c0-0.14-0.024-0.276-0.072-0.408c-0.048-0.132-0.121-0.248-0.221-0.347
					c-0.099-0.099-0.223-0.178-0.37-0.237c-0.147-0.059-0.32-0.089-0.518-0.089h-1.312v2.173H162.58z"/>
				<path style="fill:#FFFFFF;" d="M166.308,432.771h1.731l3.177,5.294h0.088l-0.088-1.522v-3.772h1.478v7.897h-1.566l-3.353-5.592
					h-0.088l0.088,1.522v4.07h-1.467V432.771z"/>
				<path style="fill:#FFFFFF;" d="M177.922,436.334h3.872c0.022,0.089,0.04,0.195,0.055,0.32c0.014,0.125,0.022,0.25,0.022,0.375
					c0,0.507-0.077,0.985-0.231,1.434c-0.154,0.449-0.397,0.849-0.728,1.202c-0.353,0.375-0.776,0.666-1.268,0.871
					c-0.493,0.206-1.055,0.309-1.688,0.309c-0.574,0-1.114-0.103-1.622-0.309c-0.507-0.206-0.948-0.492-1.323-0.86
					c-0.375-0.367-0.673-0.803-0.894-1.307c-0.221-0.504-0.331-1.053-0.331-1.649c0-0.595,0.11-1.145,0.331-1.649
					c0.221-0.504,0.518-0.939,0.894-1.307c0.375-0.367,0.816-0.654,1.323-0.86c0.507-0.206,1.048-0.309,1.622-0.309
					c0.64,0,1.211,0.11,1.715,0.331c0.504,0.221,0.935,0.526,1.296,0.915l-1.025,1.004c-0.258-0.272-0.544-0.48-0.861-0.623
					c-0.316-0.143-0.695-0.215-1.136-0.215c-0.361,0-0.703,0.065-1.026,0.193c-0.324,0.129-0.607,0.311-0.85,0.546
					c-0.242,0.235-0.436,0.52-0.579,0.855c-0.143,0.335-0.215,0.708-0.215,1.119c0,0.412,0.072,0.785,0.215,1.12
					c0.143,0.335,0.338,0.62,0.584,0.855c0.246,0.235,0.531,0.418,0.855,0.546c0.323,0.129,0.669,0.193,1.037,0.193
					c0.419,0,0.773-0.061,1.064-0.182c0.29-0.121,0.538-0.278,0.744-0.469c0.148-0.132,0.275-0.3,0.381-0.502
					c0.106-0.202,0.189-0.428,0.248-0.678h-2.482V436.334z"/>
			</g>
			<g>
				<path style="fill:#FFFFFF;" d="M224.019,431.299c-0.006-1.224-0.959-2.121-2.189-2.14c-0.924-0.014-0.832,0.12-0.834-0.867
					c-0.003-1.097-0.007-2.194,0.003-3.292c0.003-0.379-0.112-0.691-0.362-0.976c-2.342-2.668-4.678-5.342-7.019-8.011
					c-0.12-0.137-0.275-0.244-0.414-0.366c-6.214,0-12.427,0-18.641,0c-0.794,0.293-1.14,0.868-1.138,1.709
					c0.01,3.748,0.004,7.496,0.004,11.243c0,0.556-0.003,0.589-0.55,0.551c-1.497-0.102-2.516,0.986-2.497,2.492
					c0.044,3.476,0.013,6.953,0.014,10.429c0.001,1.58,0.867,2.443,2.45,2.449c0.582,0.002,0.582,0.002,0.582,0.6
					c0,2.219-0.001,4.438,0.001,6.657c0.001,1.192,0.58,1.771,1.768,1.771c8.013,0.001,16.027,0.001,24.04,0
					c1.168,0,1.755-0.583,1.757-1.745c0.002-2.256,0-4.512,0.001-6.768c0-0.512,0.002-0.511,0.52-0.515
					c0.271-0.002,0.541,0.008,0.809-0.058c0.997-0.246,1.69-1.044,1.694-2.069C224.034,438.696,224.036,434.997,224.019,431.299z
					 M195.568,417.162c5.337,0,10.674,0,16.01,0c0.548,0,0.554,0.007,0.554,0.561c0.001,2.243-0.001,4.486,0.001,6.73
					c0.001,0.811,0.249,1.059,1.06,1.059c1.91,0.001,3.821,0,5.731,0.001c0.458,0,0.479,0.021,0.481,0.483
					c0.003,0.887,0.002,1.775,0,2.662c-0.001,0.477-0.024,0.498-0.504,0.499c-3.895,0.001-7.79,0-11.684,0
					c-3.882,0-7.765,0-11.647,0c-0.55,0-0.552-0.001-0.552-0.561c-0.001-3.624-0.001-7.247,0-10.871
					C195.018,417.166,195.022,417.162,195.568,417.162z M218.854,451.579c-3.883,0.001-7.766,0-11.65,0c-3.871,0-7.742,0-11.613,0
					c-0.572,0-0.574-0.002-0.574-0.579c-0.001-1.997-0.001-3.994,0.001-5.991c0-0.464,0.023-0.486,0.478-0.487
					c7.803-0.001,15.607-0.001,23.41,0c0.478,0,0.499,0.02,0.499,0.503c0.002,1.997,0.001,3.994,0,5.991
					C219.406,451.574,219.401,451.579,218.854,451.579z"/>
			</g>
			<g>
				<path style="fill:#FFFFFF;" d="M205.111,432.771h1.699l2.967,7.897h-1.644l-0.651-1.886h-3.044l-0.651,1.886h-1.643
					L205.111,432.771z M206.997,437.415l-0.706-1.974l-0.287-0.96h-0.088l-0.287,0.96l-0.706,1.974H206.997z"/>
				<path style="fill:#FFFFFF;" d="M211.331,434.536c-0.125,0-0.245-0.024-0.359-0.072c-0.114-0.048-0.213-0.114-0.298-0.199
					c-0.084-0.084-0.151-0.182-0.198-0.292c-0.048-0.11-0.072-0.232-0.072-0.364s0.024-0.254,0.072-0.364
					c0.048-0.11,0.114-0.208,0.198-0.292c0.084-0.084,0.184-0.151,0.298-0.198c0.114-0.048,0.233-0.072,0.359-0.072
					c0.257,0,0.478,0.09,0.662,0.27c0.184,0.181,0.276,0.399,0.276,0.656s-0.092,0.476-0.276,0.656
					C211.809,434.446,211.589,434.536,211.331,434.536z M210.615,440.669v-5.404h1.445v5.404H210.615z"/>
			</g>
			<g>
				<path style="fill:#FFFFFF;" d="M261.044,431.299c-0.006-1.224-0.959-2.121-2.189-2.14c-0.924-0.014-0.832,0.12-0.834-0.867
					c-0.003-1.097-0.007-2.194,0.003-3.292c0.003-0.379-0.112-0.691-0.362-0.976c-2.342-2.668-4.678-5.342-7.019-8.011
					c-0.12-0.137-0.275-0.244-0.414-0.366c-6.214,0-12.427,0-18.641,0c-0.794,0.293-1.14,0.868-1.138,1.709
					c0.01,3.748,0.004,7.496,0.004,11.243c0,0.556-0.003,0.589-0.55,0.551c-1.497-0.102-2.516,0.986-2.497,2.492
					c0.044,3.476,0.013,6.953,0.014,10.429c0.001,1.58,0.867,2.443,2.45,2.449c0.582,0.002,0.582,0.002,0.582,0.6
					c0,2.219-0.001,4.438,0.001,6.657c0.001,1.192,0.58,1.771,1.768,1.771c8.013,0.001,16.027,0.001,24.04,0
					c1.168,0,1.755-0.583,1.757-1.745c0.002-2.256,0-4.512,0.001-6.768c0-0.512,0.002-0.511,0.52-0.515
					c0.271-0.002,0.541,0.008,0.809-0.058c0.996-0.246,1.69-1.044,1.694-2.069C261.059,438.696,261.061,434.997,261.044,431.299z
					 M232.593,417.162c5.337,0,10.674,0,16.01,0c0.548,0,0.554,0.007,0.554,0.561c0.001,2.243-0.001,4.486,0.001,6.73
					c0.001,0.811,0.249,1.059,1.06,1.059c1.91,0.001,3.821,0,5.731,0.001c0.458,0,0.479,0.021,0.481,0.483
					c0.003,0.887,0.002,1.775,0,2.662c-0.001,0.477-0.024,0.498-0.504,0.499c-3.895,0.001-7.79,0-11.684,0
					c-3.882,0-7.765,0-11.647,0c-0.55,0-0.552-0.001-0.552-0.561c-0.001-3.624-0.001-7.247,0-10.871
					C232.042,417.166,232.047,417.162,232.593,417.162z M255.878,451.579c-3.883,0.001-7.766,0-11.65,0c-3.871,0-7.742,0-11.613,0
					c-0.572,0-0.574-0.002-0.574-0.579c-0.001-1.997-0.001-3.994,0.001-5.991c0-0.464,0.023-0.486,0.478-0.487
					c7.803-0.001,15.607-0.001,23.41,0c0.478,0,0.499,0.02,0.499,0.503c0.002,1.997,0.001,3.994,0,5.991
					C256.431,451.574,256.426,451.579,255.878,451.579z"/>
			</g>
			<g>
				<path style="fill:#FFFFFF;" d="M236.361,440.845c-0.338,0-0.662-0.048-0.971-0.143c-0.309-0.095-0.592-0.239-0.849-0.43
					c-0.257-0.191-0.481-0.425-0.673-0.7c-0.191-0.276-0.342-0.597-0.452-0.965l1.401-0.551c0.103,0.397,0.283,0.726,0.54,0.987
					c0.257,0.261,0.596,0.392,1.015,0.392c0.154,0,0.303-0.02,0.447-0.061c0.143-0.04,0.272-0.099,0.386-0.176
					s0.204-0.175,0.27-0.292c0.066-0.118,0.099-0.254,0.099-0.408c0-0.147-0.026-0.279-0.077-0.397
					c-0.051-0.117-0.138-0.227-0.259-0.331c-0.121-0.103-0.28-0.202-0.475-0.298c-0.195-0.095-0.435-0.195-0.722-0.298l-0.485-0.176
					c-0.213-0.073-0.429-0.173-0.645-0.298c-0.217-0.125-0.413-0.276-0.59-0.452c-0.177-0.176-0.322-0.384-0.436-0.623
					c-0.114-0.239-0.171-0.509-0.171-0.81c0-0.309,0.06-0.597,0.182-0.866c0.121-0.268,0.294-0.503,0.518-0.706
					c0.224-0.202,0.492-0.36,0.805-0.474s0.66-0.171,1.042-0.171c0.397,0,0.74,0.053,1.031,0.16
					c0.291,0.107,0.537,0.243,0.739,0.408c0.202,0.165,0.366,0.348,0.491,0.546c0.125,0.199,0.217,0.386,0.276,0.563l-1.312,0.551
					c-0.074-0.221-0.208-0.419-0.402-0.596c-0.195-0.176-0.462-0.265-0.8-0.265c-0.324,0-0.592,0.075-0.805,0.226
					c-0.213,0.151-0.32,0.348-0.32,0.59c0,0.235,0.103,0.436,0.309,0.601c0.206,0.165,0.533,0.325,0.982,0.48l0.497,0.165
					c0.316,0.111,0.605,0.237,0.866,0.381c0.261,0.143,0.485,0.314,0.673,0.513c0.187,0.199,0.331,0.425,0.43,0.678
					c0.1,0.254,0.149,0.546,0.149,0.877c0,0.412-0.083,0.767-0.248,1.064c-0.165,0.298-0.377,0.542-0.634,0.734
					c-0.258,0.191-0.548,0.335-0.872,0.43C236.986,440.797,236.67,440.845,236.361,440.845z"/>
				<path style="fill:#FFFFFF;" d="M239.516,432.771h1.61l1.633,4.754l0.287,1.015h0.088l0.309-1.015l1.699-4.754h1.61l-2.879,7.897
					h-1.566L239.516,432.771z"/>
				<path style="fill:#FFFFFF;" d="M251.097,436.334h3.871c0.022,0.089,0.04,0.195,0.055,0.32c0.015,0.125,0.023,0.25,0.023,0.375
					c0,0.507-0.078,0.985-0.232,1.434c-0.154,0.449-0.397,0.849-0.728,1.202c-0.353,0.375-0.775,0.666-1.268,0.871
					c-0.493,0.206-1.055,0.309-1.688,0.309c-0.574,0-1.114-0.103-1.621-0.309c-0.507-0.206-0.949-0.492-1.324-0.86
					c-0.375-0.367-0.673-0.803-0.894-1.307c-0.22-0.504-0.331-1.053-0.331-1.649c0-0.595,0.11-1.145,0.331-1.649
					c0.221-0.504,0.518-0.939,0.894-1.307c0.375-0.367,0.816-0.654,1.324-0.86c0.507-0.206,1.047-0.309,1.621-0.309
					c0.64,0,1.211,0.11,1.715,0.331c0.504,0.221,0.936,0.526,1.296,0.915l-1.026,1.004c-0.257-0.272-0.544-0.48-0.861-0.623
					c-0.316-0.143-0.694-0.215-1.136-0.215c-0.36,0-0.702,0.065-1.026,0.193c-0.323,0.129-0.607,0.311-0.849,0.546
					c-0.243,0.235-0.436,0.52-0.579,0.855c-0.143,0.335-0.215,0.708-0.215,1.119c0,0.412,0.072,0.785,0.215,1.12
					c0.143,0.335,0.338,0.62,0.585,0.855c0.246,0.235,0.531,0.418,0.854,0.546c0.324,0.129,0.669,0.193,1.037,0.193
					c0.419,0,0.774-0.061,1.064-0.182c0.29-0.121,0.539-0.278,0.745-0.469c0.147-0.132,0.274-0.3,0.38-0.502
					c0.107-0.202,0.189-0.428,0.248-0.678h-2.482V436.334z"/>
			</g>
			<g>
				<path style="fill:#FFFFFF;" d="M297.3,431.299c-0.006-1.224-0.959-2.121-2.189-2.14c-0.924-0.014-0.832,0.12-0.834-0.867
					c-0.003-1.097-0.007-2.194,0.003-3.292c0.003-0.379-0.112-0.691-0.362-0.976c-2.342-2.668-4.678-5.342-7.019-8.011
					c-0.12-0.137-0.275-0.244-0.414-0.366c-6.214,0-12.427,0-18.641,0c-0.794,0.293-1.14,0.868-1.138,1.709
					c0.01,3.748,0.004,7.496,0.004,11.243c0,0.556-0.003,0.589-0.55,0.551c-1.497-0.102-2.516,0.986-2.497,2.492
					c0.044,3.476,0.013,6.953,0.014,10.429c0.001,1.58,0.867,2.443,2.45,2.449c0.582,0.002,0.582,0.002,0.582,0.6
					c0,2.219-0.001,4.438,0.001,6.657c0.001,1.192,0.58,1.771,1.768,1.771c8.013,0.001,16.027,0.001,24.04,0
					c1.168,0,1.755-0.583,1.757-1.745c0.002-2.256,0-4.512,0.001-6.768c0-0.512,0.002-0.511,0.52-0.515
					c0.271-0.002,0.541,0.008,0.809-0.058c0.996-0.246,1.69-1.044,1.694-2.069C297.315,438.696,297.318,434.997,297.3,431.299z
					 M268.85,417.162c5.337,0,10.674,0,16.01,0c0.548,0,0.554,0.007,0.554,0.561c0.001,2.243-0.001,4.486,0.001,6.73
					c0.001,0.811,0.249,1.059,1.06,1.059c1.91,0.001,3.821,0,5.731,0.001c0.458,0,0.479,0.021,0.481,0.483
					c0.003,0.887,0.002,1.775,0,2.662c-0.001,0.477-0.024,0.498-0.504,0.499c-3.895,0.001-7.79,0-11.684,0
					c-3.882,0-7.765,0-11.647,0c-0.55,0-0.552-0.001-0.552-0.561c-0.001-3.624-0.001-7.247,0-10.871
					C268.299,417.166,268.303,417.162,268.85,417.162z M292.135,451.579c-3.883,0.001-7.766,0-11.65,0c-3.871,0-7.742,0-11.613,0
					c-0.572,0-0.574-0.002-0.574-0.579c-0.001-1.997-0.001-3.994,0.001-5.991c0-0.464,0.023-0.486,0.478-0.487
					c7.803-0.001,15.607-0.001,23.41,0c0.478,0,0.499,0.02,0.499,0.503c0.001,1.997,0.001,3.994,0,5.991
					C292.687,451.574,292.682,451.579,292.135,451.579z"/>
			</g>
			<g>
				<path style="fill:#FFFFFF;" d="M272.966,434.183v1.831h3.165v1.412h-3.165v1.831h3.518v1.412h-5.007v-7.897h5.007v1.412H272.966
					z"/>
				<path style="fill:#FFFFFF;" d="M277.852,440.669v-7.897h2.779c0.375,0,0.726,0.061,1.053,0.182
					c0.327,0.121,0.612,0.292,0.855,0.513c0.243,0.221,0.434,0.483,0.574,0.789c0.14,0.305,0.209,0.642,0.209,1.009
					c0,0.375-0.07,0.715-0.209,1.02c-0.14,0.305-0.331,0.568-0.574,0.789c-0.243,0.221-0.528,0.392-0.855,0.513
					c-0.327,0.121-0.678,0.182-1.053,0.182h-1.29v2.901H277.852z M280.653,436.356c0.389,0,0.684-0.111,0.882-0.331
					c0.199-0.22,0.298-0.474,0.298-0.761c0-0.14-0.024-0.276-0.072-0.408c-0.048-0.132-0.121-0.248-0.221-0.347
					c-0.099-0.099-0.222-0.178-0.37-0.237c-0.147-0.059-0.32-0.089-0.518-0.089h-1.312v2.173H280.653z"/>
				<path style="fill:#FFFFFF;" d="M286.797,440.845c-0.338,0-0.662-0.048-0.971-0.143c-0.309-0.095-0.592-0.239-0.849-0.43
					c-0.257-0.191-0.482-0.425-0.673-0.7c-0.191-0.276-0.342-0.597-0.452-0.965l1.401-0.551c0.103,0.397,0.283,0.726,0.541,0.987
					c0.257,0.261,0.595,0.392,1.015,0.392c0.154,0,0.303-0.02,0.447-0.061c0.143-0.04,0.272-0.099,0.386-0.176
					c0.114-0.077,0.204-0.175,0.27-0.292c0.066-0.118,0.1-0.254,0.1-0.408c0-0.147-0.026-0.279-0.077-0.397
					c-0.051-0.117-0.138-0.227-0.259-0.331c-0.121-0.103-0.279-0.202-0.474-0.298c-0.195-0.095-0.436-0.195-0.723-0.298
					l-0.485-0.176c-0.213-0.073-0.428-0.173-0.645-0.298c-0.217-0.125-0.414-0.276-0.59-0.452c-0.176-0.176-0.322-0.384-0.436-0.623
					c-0.114-0.239-0.171-0.509-0.171-0.81c0-0.309,0.061-0.597,0.182-0.866c0.121-0.268,0.294-0.503,0.518-0.706
					c0.224-0.202,0.493-0.36,0.805-0.474c0.312-0.114,0.66-0.171,1.042-0.171c0.397,0,0.741,0.053,1.031,0.16
					c0.29,0.107,0.537,0.243,0.739,0.408c0.202,0.165,0.365,0.348,0.491,0.546c0.125,0.199,0.217,0.386,0.276,0.563l-1.312,0.551
					c-0.074-0.221-0.208-0.419-0.403-0.596c-0.195-0.176-0.462-0.265-0.799-0.265c-0.324,0-0.592,0.075-0.805,0.226
					c-0.213,0.151-0.32,0.348-0.32,0.59c0,0.235,0.103,0.436,0.309,0.601c0.206,0.165,0.533,0.325,0.982,0.48l0.496,0.165
					c0.316,0.111,0.605,0.237,0.866,0.381c0.261,0.143,0.485,0.314,0.673,0.513c0.187,0.199,0.331,0.425,0.43,0.678
					c0.099,0.254,0.149,0.546,0.149,0.877c0,0.412-0.083,0.767-0.248,1.064c-0.165,0.298-0.377,0.542-0.634,0.734
					c-0.258,0.191-0.548,0.335-0.872,0.43C287.422,440.797,287.105,440.845,286.797,440.845z"/>
			</g>
			<g>
				<path style="fill:#FFFFFF;" d="M321.394,439.168l4.004-4.985h-3.827v-1.412h5.559v1.5l-3.96,4.985h4.004v1.412h-5.779V439.168z"
					/>
				<path style="fill:#FFFFFF;" d="M328.409,432.771h1.489v7.897h-1.489V432.771z"/>
				<path style="fill:#FFFFFF;" d="M331.486,440.669v-7.897h2.779c0.375,0,0.726,0.061,1.053,0.182
					c0.327,0.121,0.612,0.292,0.855,0.513s0.434,0.483,0.574,0.789c0.14,0.305,0.209,0.642,0.209,1.009
					c0,0.375-0.07,0.715-0.209,1.02c-0.14,0.305-0.331,0.568-0.574,0.789c-0.243,0.221-0.528,0.392-0.855,0.513
					c-0.327,0.121-0.678,0.182-1.053,0.182h-1.29v2.901H331.486z M334.288,436.356c0.389,0,0.684-0.111,0.882-0.331
					c0.199-0.22,0.298-0.474,0.298-0.761c0-0.14-0.024-0.276-0.072-0.408c-0.048-0.132-0.121-0.248-0.221-0.347
					c-0.099-0.099-0.222-0.178-0.37-0.237c-0.147-0.059-0.32-0.089-0.518-0.089h-1.312v2.173H334.288z"/>
			</g>
		</g>
		<g style="opacity:0.61;">
			<path style="fill:#FFFFFF;" d="M300.133,433.27h9.067v2.242h-9.067V433.27z M300.133,437.136h9.067v2.243h-9.067V437.136z"/>
		</g>
	</g>
	<g style="opacity:0.61;">
		<path style="fill:#FFFFFF;" d="M156.756,478.878h1.607c1.263,0,2.114,0.812,2.114,1.974c0,1.161-0.851,1.973-2.114,1.973h-1.607
			V478.878z M158.34,482.464c1.049,0,1.725-0.665,1.725-1.612c0-0.947-0.677-1.613-1.725-1.613h-1.167v3.225H158.34z"/>
		<path style="fill:#FFFFFF;" d="M165.139,480.851c0-1.15,0.879-2.007,2.075-2.007c1.184,0,2.069,0.851,2.069,2.007
			c0,1.156-0.885,2.007-2.069,2.007C166.019,482.858,165.139,482.002,165.139,480.851z M168.866,480.851
			c0-0.942-0.705-1.635-1.652-1.635c-0.953,0-1.663,0.693-1.663,1.635c0,0.941,0.71,1.635,1.663,1.635
			C168.162,482.486,168.866,481.793,168.866,480.851z"/>
		<path style="fill:#FFFFFF;" d="M179.596,478.878l-1.331,3.947h-0.44l-1.156-3.366l-1.161,3.366h-0.434l-1.331-3.947h0.429
			l1.139,3.394l1.178-3.394h0.389l1.161,3.411l1.156-3.411H179.596z"/>
		<path style="fill:#FFFFFF;" d="M187.731,478.878v3.947h-0.344l-2.537-3.202v3.202h-0.417v-3.947h0.344l2.543,3.203v-3.203H187.731
			z"/>
		<path style="fill:#FFFFFF;" d="M193.093,478.878h0.417v3.586h2.21v0.361h-2.627V478.878z"/>
		<path style="fill:#FFFFFF;" d="M200.061,480.851c0-1.15,0.879-2.007,2.075-2.007c1.184,0,2.069,0.851,2.069,2.007
			c0,1.156-0.885,2.007-2.069,2.007C200.941,482.858,200.061,482.002,200.061,480.851z M203.788,480.851
			c0-0.942-0.705-1.635-1.652-1.635c-0.953,0-1.663,0.693-1.663,1.635c0,0.941,0.71,1.635,1.663,1.635
			C203.083,482.486,203.788,481.793,203.788,480.851z"/>
		<path style="fill:#FFFFFF;" d="M211.636,481.77h-2.199l-0.474,1.054h-0.434l1.804-3.947h0.412l1.804,3.947h-0.44L211.636,481.77z
			 M211.484,481.432l-0.947-2.12l-0.947,2.12H211.484z"/>
		<path style="fill:#FFFFFF;" d="M217.28,478.878h1.607c1.263,0,2.114,0.812,2.114,1.974c0,1.161-0.851,1.973-2.114,1.973h-1.607
			V478.878z M218.864,482.464c1.049,0,1.725-0.665,1.725-1.612c0-0.947-0.677-1.613-1.725-1.613h-1.167v3.225H218.864z"/>
		<path style="fill:#FFFFFF;" d="M234.041,481.77h-2.199l-0.474,1.054h-0.434l1.804-3.947h0.412l1.804,3.947h-0.44L234.041,481.77z
			 M233.889,481.432l-0.947-2.12l-0.947,2.12H233.889z"/>
		<path style="fill:#FFFFFF;" d="M239.685,478.878h0.417v3.586h2.21v0.361h-2.627V478.878z"/>
		<path style="fill:#FFFFFF;" d="M247.082,478.878h0.417v3.586h2.21v0.361h-2.627V478.878z"/>
		<path style="fill:#FFFFFF;" d="M260.449,479.239v1.551h2.041v0.361h-2.041v1.675h-0.417v-3.947h2.706v0.361H260.449z"/>
		<path style="fill:#FFFFFF;" d="M267.678,478.878h0.417v3.947h-0.417V478.878z"/>
		<path style="fill:#FFFFFF;" d="M273.456,478.878h0.417v3.586h2.21v0.361h-2.627V478.878z"/>
		<path style="fill:#FFFFFF;" d="M283.644,482.464v0.361h-2.791v-3.947h2.706v0.361h-2.289v1.404h2.041v0.355h-2.041v1.466H283.644z
			"/>
		<path style="fill:#FFFFFF;" d="M294.672,479.239v1.551h2.041v0.361h-2.041v1.675h-0.417v-3.947h2.706v0.361H294.672z"/>
		<path style="fill:#FFFFFF;" d="M301.5,480.851c0-1.15,0.879-2.007,2.075-2.007c1.184,0,2.069,0.851,2.069,2.007
			c0,1.156-0.885,2.007-2.069,2.007C302.379,482.858,301.5,482.002,301.5,480.851z M305.226,480.851
			c0-0.942-0.705-1.635-1.652-1.635c-0.953,0-1.663,0.693-1.663,1.635c0,0.941,0.71,1.635,1.663,1.635
			C304.522,482.486,305.226,481.793,305.226,480.851z"/>
		<path style="fill:#FFFFFF;" d="M313.351,482.825l-0.902-1.269c-0.102,0.011-0.203,0.017-0.316,0.017h-1.06v1.252h-0.417v-3.947
			h1.477c1.004,0,1.613,0.507,1.613,1.353c0,0.62-0.327,1.054-0.902,1.24l0.964,1.353H313.351z M313.328,480.231
			c0-0.632-0.417-0.992-1.207-0.992h-1.048v1.979h1.048C312.911,481.218,313.328,480.851,313.328,480.231z"/>
		<path style="fill:#FFFFFF;" d="M322.907,478.878v3.947h-0.4v-3.158l-1.551,2.656h-0.197l-1.551-2.639v3.14h-0.4v-3.947h0.344
			l1.714,2.926l1.697-2.926H322.907z"/>
		<path style="fill:#FFFFFF;" d="M330.744,481.77h-2.199l-0.473,1.054h-0.434l1.804-3.947h0.411l1.804,3.947h-0.44L330.744,481.77z
			 M330.592,481.432l-0.947-2.12l-0.947,2.12H330.592z"/>
		<path style="fill:#FFFFFF;" d="M336.957,479.239h-1.387v-0.361h3.192v0.361h-1.387v3.586h-0.417V479.239z"/>
		<path style="fill:#FFFFFF;" d="M343.063,482.346l0.164-0.321c0.282,0.276,0.784,0.479,1.302,0.479c0.739,0,1.06-0.31,1.06-0.699
			c0-1.083-2.43-0.417-2.43-1.877c0-0.581,0.451-1.083,1.455-1.083c0.446,0,0.908,0.13,1.224,0.35l-0.141,0.333
			c-0.338-0.22-0.733-0.327-1.083-0.327c-0.722,0-1.043,0.321-1.043,0.716c0,1.083,2.43,0.429,2.43,1.866
			c0,0.581-0.462,1.077-1.472,1.077C343.937,482.858,343.356,482.65,343.063,482.346z"/>
	</g>
</g>
<g>
</g>
<g>
	<path style="fill:#231F20;" d="M475,232.549c0,11.738,0,23.476,0,35.215c-0.424,0.289-0.296,0.736-0.32,1.136
		c-0.098,1.648-0.191,3.297-0.287,4.946c-0.006,0.103-0.013,0.209-0.044,0.306c-0.429,1.338-0.265,2.754-0.547,4.118
		c-0.228,1.102-0.148,2.273-0.426,3.358c-0.185,0.724-0.06,1.462-0.276,2.137c-0.351,1.093-0.291,2.235-0.545,3.341
		c-0.332,1.447-0.495,2.932-0.771,4.393c-0.238,1.258-0.532,2.506-0.801,3.758c-0.397,1.853-0.779,3.71-1.193,5.56
		c-0.313,1.402-0.659,2.798-1.001,4.194c-1.04,4.241-2.194,8.453-3.534,12.608c-1.248,3.87-2.618,7.702-3.953,11.543
		c-0.389,1.119-0.826,2.221-1.274,3.318c-0.781,1.908-1.573,3.813-2.387,5.707c-1.081,2.512-2.084,5.065-3.307,7.507
		c-2.178,4.353-4.191,8.792-6.642,13.007c-0.701,1.206-1.287,2.479-1.999,3.678c-1.766,2.972-3.509,5.961-5.383,8.864
		c-2.125,3.292-4.374,6.505-6.588,9.739c-0.611,0.892-1.287,1.74-1.938,2.604c-1.116,1.482-2.239,2.958-3.381,4.42
		c-1.523,1.948-3.054,3.886-4.615,5.804c-0.689,0.845-1.445,1.617-2.149,2.441c-0.869,1.018-1.649,2.113-2.539,3.111
		c-0.928,1.041-1.886,2.054-2.818,3.092c-1.935,2.156-4.06,4.136-5.989,6.309c-1.299,1.463-2.863,2.688-4.292,4.036
		c-2.147,2.025-4.279,4.065-6.418,6.099c-0.075,0.072-0.148,0.147-0.229,0.212c-1.041,0.842-2.131,1.63-3.112,2.536
		c-1.253,1.157-2.569,2.229-3.909,3.28c-1.743,1.367-3.391,2.86-5.174,4.17c-3.652,2.684-7.353,5.302-11.061,7.908
		c-1.601,1.126-3.251,2.186-4.913,3.221c-2.145,1.336-4.312,2.636-6.491,3.915c-2.58,1.515-5.139,3.073-7.784,4.465
		c-3.711,1.952-7.488,3.78-11.248,5.637c-1.435,0.709-2.887,1.39-4.358,2.021c-2.32,0.996-4.651,1.97-7,2.896
		c-2.54,1.002-5.083,2.005-7.665,2.887c-4.192,1.431-8.411,2.788-12.634,4.128c-1.763,0.559-3.558,1.022-5.351,1.478
		c-3.286,0.837-6.575,1.661-9.875,2.441c-1.598,0.378-3.222,0.641-4.833,0.964c-1.459,0.293-2.913,0.607-4.374,0.891
		c-1.159,0.226-2.32,0.449-3.487,0.623c-1.017,0.152-2.045,0.223-3.066,0.349c-0.969,0.12-1.935,0.264-2.902,0.402
		c-1.219,0.173-2.434,0.46-3.657,0.498c-1.448,0.046-2.854,0.539-4.315,0.356c-0.099-0.012-0.218-0.001-0.306,0.043
		c-0.685,0.344-1.42,0.235-2.141,0.253c-0.363,0.009-0.761-0.081-1.084,0.037c-1.164,0.423-2.361,0.22-3.544,0.276
		c-0.563,0.027-1.148-0.111-1.673,0.215c-8.622,0-17.244,0-25.866,0c-0.459-0.363-0.997-0.191-1.502-0.21
		c-0.933-0.035-1.901,0.115-2.792-0.087c-0.88-0.2-1.739-0.205-2.614-0.23c-0.363-0.011-0.762,0.073-1.082-0.051
		c-0.806-0.311-1.63-0.243-2.455-0.263c-0.259-0.006-0.54,0.03-0.772-0.055c-1.284-0.473-2.657-0.186-3.972-0.529
		c-1.082-0.282-2.251-0.213-3.368-0.384c-1.672-0.256-3.325-0.648-5.001-0.869c-2.395-0.316-4.76-0.781-7.123-1.26
		c-2.717-0.551-5.445-1.055-8.142-1.691c-5.404-1.274-10.752-2.771-16.048-4.435c-3.587-1.127-7.13-2.394-10.684-3.624
		c-1.07-0.37-2.116-0.814-3.164-1.246c-1.906-0.785-3.785-1.641-5.712-2.368c-2.32-0.875-4.559-1.924-6.805-2.961
		c-0.47-0.217-0.91-0.5-1.389-0.692c-3.222-1.292-6.252-2.981-9.335-4.552c-2.524-1.286-4.963-2.743-7.424-4.151
		c-2.013-1.151-4.029-2.3-5.996-3.526c-2.316-1.444-4.594-2.949-6.863-4.466c-2.311-1.545-4.633-3.073-6.83-4.784
		c-1.419-1.105-2.918-2.106-4.356-3.187c-1.069-0.804-2.094-1.667-3.146-2.494c-0.728-0.572-1.481-1.112-2.2-1.694
		c-0.881-0.713-1.74-1.452-2.604-2.186c-0.315-0.268-0.607-0.565-0.927-0.826c-0.877-0.714-1.796-1.38-2.638-2.132
		c-0.885-0.79-1.739-1.608-2.652-2.374c-1.701-1.427-3.286-2.995-4.89-4.536c-1.273-1.223-2.526-2.469-3.744-3.745
		c-2.002-2.097-4.199-3.998-6.023-6.277c-1.093-1.365-2.466-2.496-3.56-3.887c-0.956-1.215-2.065-2.31-3.105-3.458
		c-0.069-0.077-0.134-0.159-0.198-0.24c-0.7-0.889-1.388-1.788-2.101-2.666c-1.461-1.8-3.001-3.541-4.39-5.394
		c-2.562-3.419-5.089-6.868-7.535-10.371c-1.858-2.662-3.64-5.384-5.325-8.157c-2.277-3.746-4.46-7.551-6.623-11.365
		c-1.198-2.113-2.292-4.287-3.393-6.453c-0.514-1.011-0.92-2.075-1.397-3.105c-0.76-1.641-1.555-3.265-2.306-4.91
		c-0.878-1.924-1.745-3.855-2.578-5.799c-0.71-1.657-1.391-3.326-2.036-5.009c-0.737-1.922-1.439-3.858-2.124-5.799
		c-1.096-3.107-2.209-6.209-3.231-9.34c-0.7-2.146-1.268-4.335-1.876-6.511c-0.552-1.977-1.115-3.953-1.606-5.946
		c-0.563-2.289-1.059-4.595-1.568-6.897c-0.232-1.051-0.415-2.112-0.637-3.165c-0.265-1.255-0.526-2.506-0.697-3.783
		c-0.182-1.366-0.563-2.705-0.825-4.062c-0.146-0.755-0.24-1.521-0.333-2.285c-0.13-1.071-0.18-2.155-0.369-3.215
		c-0.261-1.467-0.569-2.923-0.578-4.423c-0.001-0.256-0.051-0.513-0.087-0.769c-0.07-0.507-0.16-1.011-0.214-1.519
		c-0.039-0.36,0.065-0.764-0.064-1.079c-0.331-0.806-0.227-1.631-0.253-2.454c-0.01-0.311,0.066-0.658-0.046-0.926
		c-0.378-0.903-0.233-1.838-0.265-2.764c-0.011-0.311,0.071-0.656-0.036-0.928c-0.418-1.057-0.238-2.15-0.272-3.23
		c-0.023-0.726-0.026-1.454-0.006-2.18c0.013-0.471-0.29-0.618-0.647-0.742c0-6.856,0-13.712,0-20.568
		c0.268,0.039,0.571,0.042,0.595-0.294c0.05-0.723,0.041-1.451,0.053-2.176c0.013-0.778-0.129-1.599,0.072-2.324
		c0.259-0.93,0.207-1.843,0.238-2.769c0.014-0.415-0.094-0.872,0.046-1.237c0.347-0.911,0.239-1.838,0.27-2.765
		c0.011-0.31-0.032-0.658,0.094-0.919c0.265-0.55,0.19-1.115,0.216-1.68c0.017-0.362-0.047-0.762,0.087-1.076
		c0.236-0.554,0.211-1.111,0.226-1.679c0.007-0.258-0.035-0.549,0.068-0.768c0.281-0.594,0.195-1.216,0.252-1.83
		c0.057-0.611,0.208-1.212,0.297-1.821c0.148-1.016,0.261-2.038,0.424-3.051c0.146-0.909,0.359-1.808,0.507-2.717
		c0.148-0.912,0.171-1.851,0.391-2.744c0.785-3.186,1.307-6.427,2.029-9.628c0.644-2.854,1.326-5.701,2.064-8.526
		c1.038-3.973,2.321-7.883,3.532-11.81c0.394-1.278,0.9-2.521,1.338-3.786c1.483-4.284,3.004-8.552,4.857-12.696
		c1.326-2.966,2.484-6.01,3.894-8.934c1.799-3.729,3.614-7.452,5.619-11.083c1.448-2.623,2.89-5.25,4.42-7.825
		c1.502-2.527,3.023-5.047,4.641-7.5c2.128-3.227,4.319-6.414,6.557-9.565c1.64-2.308,3.387-4.541,5.111-6.788
		c0.91-1.185,1.876-2.327,2.813-3.491c0.775-0.962,1.521-1.948,2.322-2.888c0.905-1.061,1.974-2,2.758-3.14
		c0.947-1.377,2.39-2.304,3.209-3.77c1.811-1.85,3.617-3.7,5.362-5.616c1.702-1.869,3.492-3.672,5.479-5.278
		c1.766-1.427,3.219-3.206,4.974-4.679c1.775-1.49,3.464-3.09,5.247-4.58c1.186-0.991,2.378-1.974,3.565-2.963
		c1.941-1.616,3.93-3.167,5.957-4.669c2.855-2.115,5.699-4.248,8.625-6.26c2.121-1.459,4.261-2.895,6.466-4.237
		c2.862-1.741,5.649-3.603,8.603-5.196c2.27-1.224,4.439-2.641,6.737-3.805c3.69-1.869,7.356-3.789,11.138-5.48
		c2.544-1.137,5.117-2.204,7.655-3.35c3.152-1.424,6.417-2.553,9.641-3.785c2.69-1.027,5.453-1.863,8.191-2.763
		c2.298-0.755,4.623-1.421,6.943-2.105c3.356-0.989,6.74-1.852,10.141-2.656c2.048-0.484,4.093-0.978,6.177-1.312
		c1.821-0.293,3.602-0.827,5.419-1.151c2.173-0.387,4.386-0.565,6.543-1.019c1.867-0.393,3.77-0.446,5.635-0.839
		c1.25-0.263,2.559-0.247,3.841-0.362c0.307-0.028,0.611-0.085,0.917-0.126c0.458-0.062,0.916-0.174,1.373-0.172
		c1.862,0.007,3.691-0.509,5.562-0.337c0.148,0.014,0.302-0.062,0.455-0.082c0.559-0.074,1.118-0.185,1.68-0.205
		c1.037-0.037,2.077-0.015,3.115-0.026c0.269-0.003,0.511-0.076,0.588-0.386c6.856,0,13.712,0,20.568,0
		c0.152,0.122,0.291,0.319,0.46,0.35c0.353,0.064,0.726,0.079,1.085,0.047c2.389-0.214,4.738,0.426,7.121,0.325
		c1.099,0.412,2.248,0.276,3.381,0.312c0.155,0.005,0.333-0.018,0.46,0.048c0.635,0.329,1.316,0.229,1.986,0.263
		c0.358,0.018,0.713,0.09,1.069,0.139c0.407,0.055,0.813,0.121,1.222,0.164c1.177,0.126,2.359,0.212,3.531,0.372
		c1.066,0.146,2.117,0.395,3.182,0.554c1.626,0.244,3.268,0.391,4.883,0.686c2.421,0.443,4.818,1.02,7.239,1.466
		c2.78,0.512,5.506,1.249,8.264,1.846c1.21,0.262,2.38,0.664,3.577,0.952c3.403,0.819,6.735,1.879,10.085,2.875
		c2.37,0.704,4.707,1.526,7.036,2.359c2.279,0.815,4.511,1.762,6.797,2.555c2.682,0.931,5.262,2.105,7.874,3.2
		c1.237,0.518,2.438,1.119,3.658,1.678c2.44,1.117,4.892,2.206,7.316,3.356c1.023,0.485,1.983,1.105,2.983,1.641
		c1.729,0.927,3.478,1.818,5.2,2.758c1.583,0.864,3.16,1.744,4.709,2.669c3.051,1.823,6.114,3.63,9.11,5.54
		c2.604,1.66,5.125,3.449,7.676,5.192c0.807,0.552,1.624,1.099,2.376,1.721c1.906,1.574,3.913,3.022,5.881,4.51
		c2.507,1.897,4.875,3.955,7.329,5.91c1.61,1.282,3.175,2.645,4.659,4.064c1.646,1.575,3.413,3.015,5.015,4.635
		c3.754,3.797,7.634,7.471,11.174,11.478c1.163,1.317,2.373,2.593,3.561,3.888c0.035,0.038,0.074,0.074,0.104,0.115
		c0.952,1.286,1.927,2.551,3.07,3.677c0.148,0.145,0.292,0.296,0.419,0.46c1.009,1.301,2.004,2.613,3.022,3.907
		c1.274,1.619,2.658,3.161,3.829,4.851c2.083,3.005,4.34,5.887,6.294,8.985c1.595,2.528,3.33,4.969,4.913,7.504
		c1.284,2.055,2.443,4.189,3.643,6.296c1.404,2.467,2.88,4.899,4.168,7.427c1.997,3.918,3.866,7.901,5.778,11.862
		c0.493,1.022,0.972,2.054,1.404,3.103c0.844,2.047,1.631,4.117,2.478,6.162c1.321,3.189,2.451,6.446,3.612,9.694
		c1.247,3.489,2.31,7.035,3.359,10.586c0.553,1.871,1.083,3.749,1.581,5.636c0.85,3.224,1.54,6.487,2.307,9.73
		c0.661,2.798,1.048,5.643,1.708,8.438c0.352,1.492,0.376,3.059,0.701,4.559c0.177,0.818,0.114,1.668,0.342,2.436
		c0.313,1.052,0.285,2.135,0.509,3.193c0.274,1.299,0.255,2.659,0.363,3.993c0.008,0.103-0.009,0.221,0.035,0.307
		c0.378,0.732,0.243,1.521,0.272,2.293c0.012,0.31,0.035,0.619,0.067,0.927c0.064,0.613,0.157,1.224,0.2,1.838
		c0.039,0.568,0.012,1.141,0.05,1.71C474.73,232.349,474.903,232.446,475,232.549z M34.376,250.214c0,2.96-0.001,5.921,0.001,8.882
		c0,0.415-0.095,0.875,0.049,1.236c0.363,0.911,0.23,1.842,0.257,2.767c0.024,0.83-0.144,1.706,0.066,2.481
		c0.253,0.932,0.201,1.843,0.253,2.768c0.077,1.388,0.438,2.753,0.34,4.157c-0.003,0.048,0.022,0.103,0.046,0.148
		c0.338,0.632,0.178,1.321,0.242,1.985c0.069,0.714,0.266,1.42,0.288,2.133c0.036,1.189,0.485,2.331,0.358,3.532
		c0.474,0.755,0.185,1.628,0.378,2.433c0.227,0.945,0.365,1.911,0.522,2.871c0.14,0.861,0.219,1.733,0.384,2.589
		c0.369,1.911,0.76,3.819,1.169,5.722c0.57,2.656,1.143,5.312,1.757,7.958c0.29,1.249,0.73,2.464,1.012,3.715
		c0.735,3.261,1.738,6.447,2.722,9.633c0.866,2.801,1.807,5.581,2.842,8.332c1.469,3.906,2.92,7.816,4.612,11.633
		c1.212,2.736,2.343,5.511,3.654,8.199c1.383,2.835,2.76,5.675,4.313,8.43c1.445,2.563,2.861,5.143,4.317,7.701
		c1.814,3.187,3.802,6.261,5.796,9.331c1.683,2.591,3.463,5.12,5.237,7.652c0.946,1.349,1.953,2.656,2.961,3.961
		c1.196,1.549,2.424,3.074,3.636,4.611c1.116,1.414,2.187,2.867,3.358,4.234c1.342,1.567,2.716,3.106,4.06,4.672
		c1.515,1.765,3.137,3.443,4.769,5.103c2.84,2.889,5.706,5.753,8.594,8.594c1.437,1.414,2.949,2.752,4.427,4.124
		c0.038,0.035,0.07,0.082,0.114,0.106c1.389,0.745,2.231,2.131,3.549,2.987c0.985,0.639,1.774,1.572,2.699,2.315
		c1.885,1.515,3.786,3.01,5.71,4.475c1.719,1.309,3.474,2.571,5.221,3.842c0.874,0.636,1.759,1.258,2.652,1.867
		c2.468,1.681,4.905,3.413,7.427,5.009c2.132,1.35,4.231,2.757,6.468,3.944c1.545,0.82,2.993,1.823,4.529,2.662
		c2.313,1.262,4.646,2.489,7.004,3.664c3.377,1.684,6.778,3.318,10.18,4.951c1.162,0.558,2.343,1.081,3.537,1.567
		c2.337,0.952,4.683,1.883,7.038,2.792c2.018,0.779,4.048,1.526,6.082,2.265c3.826,1.39,7.724,2.555,11.628,3.699
		c1.529,0.448,3.066,0.873,4.613,1.253c3.341,0.821,6.69,1.61,10.038,2.403c1.05,0.249,2.098,0.523,3.162,0.69
		c2.332,0.367,4.658,0.766,6.974,1.222c0.756,0.149,1.521,0.257,2.286,0.351c1.072,0.132,2.162,0.161,3.219,0.365
		c1.57,0.302,3.134,0.591,4.739,0.59c0.153,0,0.326,0.004,0.456,0.071c0.587,0.304,1.216,0.213,1.835,0.23
		c0.363,0.01,0.763-0.076,1.082,0.048c0.857,0.332,1.735,0.243,2.611,0.265c0.311,0.008,0.662-0.062,0.925,0.057
		c0.751,0.342,1.529,0.227,2.301,0.251c0.675,0.021,1.393-0.115,2.013,0.074c0.826,0.252,1.636,0.228,2.459,0.236
		c1.35,0.014,2.701-0.006,4.051,0.01c0.41,0.005,0.82,0.072,1.229,0.119c0.511,0.058,1.02,0.175,1.53,0.178
		c2.805,0.018,5.609,0.01,8.414,0.007c0.363,0,0.768,0.076,1.081-0.056c0.807-0.341,1.634-0.24,2.457-0.25
		c1.35-0.015,2.701,0.001,4.051-0.008c0.361-0.002,0.756,0.039,1.076-0.089c0.607-0.244,1.223-0.251,1.839-0.21
		c1.974,0.131,3.901-0.518,5.876-0.334c0.148,0.014,0.303-0.059,0.456-0.079c0.559-0.075,1.118-0.153,1.679-0.216
		c0.359-0.04,0.754,0.029,1.075-0.099c0.556-0.221,1.115-0.206,1.683-0.216c0.311-0.005,0.659,0.068,0.928-0.043
		c1.127-0.467,2.342-0.255,3.507-0.526c1.643-0.382,3.355-0.461,5.035-0.689c0.763-0.104,1.522-0.241,2.279-0.386
		c1.965-0.379,3.93-0.759,5.89-1.161c1.76-0.36,3.524-0.706,5.268-1.134c3.345-0.821,6.695-1.613,10.012-2.553
		c2.078-0.589,4.166-1.146,6.215-1.824c3.768-1.245,7.52-2.537,11.267-3.844c1.556-0.542,3.091-1.146,4.617-1.77
		c1.623-0.664,3.226-1.378,4.833-2.08c0.993-0.434,1.979-0.885,2.968-1.328c2.025-0.908,4.069-1.776,6.07-2.735
		c3.542-1.699,7.007-3.551,10.419-5.5c1.614-0.921,3.254-1.798,4.843-2.759c3.087-1.867,6.173-3.739,9.208-5.688
		c2.385-1.531,4.769-3.082,7.016-4.804c2.821-2.161,5.753-4.176,8.468-6.48c2.001-1.698,4.114-3.265,6.128-4.949
		c1.701-1.423,3.378-2.889,4.982-4.41c1.804-1.71,3.707-3.312,5.46-5.074c1.355-1.362,2.738-2.699,4.07-4.083
		c1.363-1.416,2.682-2.874,4.016-4.317c1.229-1.329,2.452-2.663,3.677-3.995c0.035-0.038,0.069-0.077,0.102-0.118
		c0.842-1.041,1.671-2.093,2.529-3.121c1.19-1.425,2.417-2.819,3.6-4.25c0.589-0.713,1.111-1.482,1.67-2.22
		c0.715-0.945,1.429-1.892,2.156-2.828c1.96-2.524,3.825-5.116,5.623-7.756c1.423-2.09,2.786-4.22,4.169-6.335
		c2.007-3.07,3.855-6.232,5.702-9.395c1.355-2.32,2.639-4.686,3.849-7.085c1.702-3.374,3.313-6.793,4.95-10.2
		c0.492-1.024,0.965-2.058,1.4-3.106c0.888-2.142,1.765-4.289,2.607-6.449c0.953-2.446,1.922-4.889,2.777-7.371
		c1.19-3.454,2.308-6.934,3.404-10.42c0.585-1.86,1.092-3.747,1.577-5.637c0.829-3.229,1.626-6.467,2.409-9.708
		c0.277-1.146,0.473-2.311,0.705-3.468c0.292-1.457,0.607-2.909,0.867-4.372c0.26-1.464,0.391-2.956,0.721-4.402
		c0.208-0.913,0.226-1.836,0.388-2.746c0.188-1.059,0.447-2.12,0.487-3.187c0.048-1.292,0.53-2.538,0.356-3.845
		c-0.013-0.098,0.005-0.218,0.053-0.303c0.32-0.58,0.229-1.211,0.243-1.829c0.006-0.26-0.064-0.552,0.031-0.773
		c0.405-0.95,0.244-1.94,0.283-2.917c0.014-0.362-0.043-0.764,0.096-1.075c0.272-0.606,0.194-1.221,0.211-1.837
		c0.022-0.778-0.124-1.597,0.074-2.325c0.239-0.879,0.228-1.738,0.237-2.613c0.013-1.298-0.004-2.597,0.008-3.895
		c0.004-0.412,0.052-0.824,0.099-1.234c0.059-0.509,0.195-1.014,0.198-1.522c0.02-2.805,0.011-5.609,0.008-8.414
		c-0.001-0.363,0.068-0.763-0.06-1.08c-0.324-0.807-0.24-1.632-0.247-2.456c-0.011-1.298-0.001-2.597-0.004-3.895
		c-0.001-0.363,0.077-0.765-0.05-1.081c-0.363-0.908-0.265-1.841-0.252-2.766c0.024-1.657-0.505-3.273-0.335-4.938
		c-0.394-0.887-0.278-1.829-0.301-2.756c-0.005-0.206,0.017-0.441-0.072-0.612c-0.305-0.589-0.21-1.215-0.238-1.832
		c-0.016-0.36-0.048-0.721-0.101-1.078c-0.166-1.115-0.359-2.226-0.514-3.342c-0.142-1.018-0.211-2.047-0.381-3.059
		c-0.255-1.515-0.632-3.011-0.843-4.531c-0.254-1.831-0.642-3.635-0.971-5.451c-0.073-0.403-0.212-0.794-0.296-1.195
		c-0.368-1.756-0.66-3.531-1.105-5.267c-0.636-2.486-1.272-4.973-1.922-7.455c-0.874-3.334-1.909-6.615-2.925-9.903
		c-0.866-2.803-1.777-5.602-2.879-8.318c-0.969-2.387-1.862-4.805-2.863-7.181c-1.181-2.804-2.334-5.629-3.657-8.359
		c-2.549-5.26-5.04-10.558-8.051-15.584c-1.511-2.523-2.902-5.12-4.458-7.613c-1.774-2.843-3.633-5.635-5.529-8.399
		c-1.777-2.59-3.634-5.126-5.489-7.661c-1.034-1.412-2.112-2.794-3.213-4.155c-1.135-1.403-2.36-2.734-3.476-4.15
		c-1.086-1.379-2.156-2.768-3.41-4.003c-0.148-0.146-0.327-0.282-0.417-0.46c-0.456-0.908-1.294-1.474-1.941-2.21
		c-0.647-0.736-1.238-1.526-1.926-2.22c-3.584-3.614-7.191-7.206-10.791-10.804c-0.257-0.257-0.485-0.577-0.793-0.742
		c-0.848-0.453-1.404-1.218-2.097-1.834c-0.732-0.65-1.492-1.27-2.223-1.921c-1.119-0.995-2.215-2.017-3.341-3.006
		c-0.696-0.612-1.421-1.193-2.147-1.77c-0.765-0.607-1.553-1.184-2.322-1.787c-1.256-0.985-2.485-2.005-3.759-2.966
		c-1.232-0.928-2.547-1.748-3.754-2.707c-2.586-2.053-5.327-3.89-8.088-5.682c-3.195-2.074-6.415-4.114-9.718-6.028
		c-2.946-1.707-5.907-3.39-8.912-4.978c-3.791-2.004-7.676-3.838-11.567-5.646c-2.616-1.215-5.293-2.306-7.976-3.368
		c-3.256-1.289-6.533-2.53-9.827-3.719c-4.069-1.469-8.205-2.735-12.388-3.841c-2.186-0.578-4.358-1.216-6.552-1.762
		c-2.241-0.558-4.502-1.04-6.755-1.551c-1.352-0.306-2.697-0.653-4.06-0.894c-2.124-0.376-4.27-0.627-6.389-1.026
		c-2.021-0.381-4.038-0.758-6.094-0.882c-0.205-0.012-0.408-0.058-0.612-0.088c-1.219-0.176-2.435-0.464-3.657-0.498
		c-1.449-0.041-2.854-0.544-4.316-0.357c-0.1,0.013-0.219,0.003-0.306-0.041c-0.684-0.346-1.419-0.24-2.14-0.255
		c-0.415-0.009-0.86,0.088-1.241-0.028c-1.529-0.461-3.089-0.216-4.634-0.289c-0.411-0.02-0.821-0.077-1.23-0.123
		c-0.51-0.058-1.019-0.176-1.529-0.177c-5.973-0.013-11.946-0.009-17.919-0.006c-0.363,0-0.762-0.069-1.081,0.055
		c-0.909,0.353-1.842,0.23-2.768,0.253c-0.83,0.02-1.701-0.13-2.481,0.072c-0.983,0.255-1.948,0.208-2.926,0.242
		c-0.415,0.014-0.869-0.071-1.235,0.071c-0.71,0.274-1.425,0.222-2.147,0.243c-0.362,0.011-0.741-0.016-1.081,0.082
		c-1.299,0.377-2.657,0.233-3.973,0.513c-1.101,0.235-2.251,0.23-3.372,0.389c-1.014,0.144-2.014,0.393-3.027,0.548
		c-0.965,0.147-1.945,0.202-2.909,0.352c-0.911,0.143-1.811,0.36-2.716,0.541c-1.662,0.331-3.327,0.65-4.987,0.992
		c-1.86,0.383-3.722,0.759-5.572,1.186c-2.906,0.67-5.809,1.35-8.665,2.222c-1.967,0.601-3.992,1.021-5.935,1.687
		c-2.338,0.801-4.702,1.521-7.039,2.326c-3.707,1.278-7.347,2.714-10.988,4.155c-1.584,0.627-3.158,1.27-4.692,2.018
		c-1.901,0.927-3.877,1.699-5.78,2.622c-3.262,1.582-6.492,3.229-9.735,4.848c-0.324,0.162-0.66,0.304-0.973,0.486
		c-2.499,1.449-5.007,2.883-7.486,4.365c-2.523,1.508-5.043,3.024-7.515,4.613c-2.254,1.449-4.446,2.994-6.656,4.509
		c-0.807,0.553-1.622,1.103-2.38,1.72c-2.319,1.886-4.825,3.524-7.103,5.468c-1.997,1.704-4.117,3.262-6.123,4.955
		c-1.576,1.331-3.158,2.666-4.659,4.073c-1.737,1.628-3.515,3.213-5.228,4.865c-1.57,1.514-3.111,3.059-4.628,4.627
		c-1.51,1.562-2.978,3.166-4.456,4.759c-1.196,1.289-2.379,2.589-3.567,3.885c-0.07,0.076-0.129,0.162-0.195,0.242
		c-0.884,1.073-1.759,2.154-2.656,3.217c-0.732,0.868-1.523,1.688-2.228,2.577c-1.408,1.775-2.793,3.57-4.155,5.38
		c-1.301,1.729-2.571,3.48-3.834,5.237c-0.812,1.13-1.534,2.328-2.39,3.423c-2.007,2.569-3.632,5.39-5.383,8.124
		c-1.586,2.476-2.995,5.066-4.463,7.616c-1.005,1.747-2.026,3.487-2.952,5.275c-1.501,2.9-2.946,5.83-4.384,8.763
		c-0.82,1.671-1.587,3.369-2.362,5.061c-0.495,1.079-0.981,2.163-1.434,3.26c-0.55,1.333-1.067,2.68-1.588,4.024
		c-0.876,2.257-1.802,4.496-2.6,6.78c-0.933,2.67-1.925,5.32-2.705,8.044c-0.552,1.928-1.26,3.812-1.807,5.741
		c-0.644,2.27-1.212,4.563-1.771,6.857c-0.619,2.541-1.287,5.071-1.73,7.655c-0.216,1.261-0.571,2.497-0.837,3.75
		c-0.245,1.154-0.55,2.307-0.659,3.476c-0.154,1.64-0.708,3.221-0.671,4.882c-0.402,0.769-0.209,1.629-0.372,2.434
		c-0.265,1.309-0.486,2.623-0.548,3.96c-0.01,0.207,0.031,0.443-0.054,0.614c-0.321,0.639-0.241,1.315-0.256,1.986
		c-0.006,0.259,0.045,0.543-0.042,0.773c-0.524,1.382-0.21,2.858-0.524,4.283c-0.283,1.284-0.056,2.658-0.325,3.999
		c-0.201,0.999-0.034,2.07-0.046,3.108c-0.005,0.413,0.045,0.863-0.099,1.229c-0.24,0.611-0.204,1.222-0.206,1.839
		C34.372,244.396,34.376,247.305,34.376,250.214z"/>
	<path style="fill:#231F20;" d="M248.13,176.539c1.523-2.36,2.946-4.57,4.376-6.777c1.152-1.778,2.532-3.376,3.861-5.02
		c2.129-2.634,4.666-4.859,7.021-7.265c0.895-0.914,1.992-1.628,2.961-2.474c1.286-1.122,2.712-2.05,4.068-3.074
		c1.447-1.093,3.012-1.983,4.537-2.945c2.106-1.329,4.346-2.418,6.608-3.427c3.526-1.572,7.116-2.999,10.886-3.933
		c1.945-0.482,3.882-0.988,5.852-1.35c1.059-0.195,2.15-0.253,3.188-0.523c1.461-0.379,2.989-0.095,4.437-0.551
		c0.381-0.12,0.825-0.049,1.24-0.05c2.805-0.003,5.609-0.006,8.414,0.001c0.669,0.002,1.354-0.097,1.985,0.246
		c0.086,0.046,0.206,0.059,0.305,0.046c1.308-0.172,2.551,0.358,3.849,0.348c0.554-0.004,1.109,0.193,1.665,0.291
		c3.039,0.533,6.026,1.27,8.988,2.143c2.178,0.642,4.31,1.402,6.401,2.26c2.528,1.038,4.994,2.209,7.376,3.582
		c2.192,1.264,4.359,2.553,6.416,4.02c1.298,0.925,2.521,1.954,3.818,2.881c2.457,1.755,4.523,3.932,6.655,6.041
		c1.582,1.565,2.99,3.277,4.407,4.989c1.549,1.871,2.951,3.84,4.277,5.866c1.102,1.684,2.178,3.387,3.052,5.206
		c1.008,2.097,2.16,4.122,3.01,6.298c1.086,2.783,2.032,5.605,2.887,8.47c0.736,2.468,1.143,4.999,1.737,7.492
		c0.26,1.091,0.171,2.262,0.397,3.365c0.346,1.693,0.089,3.423,0.356,5.088c0.216,1.348,0.209,2.674,0.239,4.012
		c0.016,0.719,0.067,1.44-0.229,2.146c-0.132,0.314-0.058,0.716-0.075,1.078c-0.059,1.285,0.075,2.565-0.259,3.857
		c-0.213,0.824-0.235,1.729-0.32,2.592c-0.193,1.954-0.694,3.838-1.074,5.748c-0.562,2.83-1.509,5.554-2.45,8.272
		c-0.691,1.996-1.451,3.974-2.415,5.863c-0.684,1.339-1.314,2.706-2.025,4.03c-0.585,1.09-1.255,2.136-1.885,3.202
		c-0.972,1.644-2.033,3.227-3.169,4.764c-1.104,1.493-2.267,2.932-3.452,4.361c-1.514,1.825-3.274,3.436-4.601,5.426
		c-0.569,0.853-1.332,1.574-1.988,2.371c-0.785,0.954-1.545,1.929-2.326,2.886c-0.62,0.759-1.222,1.538-1.895,2.248
		c-0.927,0.977-1.711,2.06-2.531,3.121c-0.693,0.897-1.482,1.721-2.218,2.585c-0.501,0.588-0.99,1.188-1.477,1.788
		c-1.264,1.561-2.516,3.132-3.79,4.685c-0.687,0.838-1.428,1.632-2.114,2.471c-1.141,1.395-2.251,2.816-3.384,4.217
		c-0.648,0.802-1.322,1.584-1.976,2.382c-1.372,1.673-2.728,3.36-4.113,5.023c-1.221,1.467-2.483,2.899-3.706,4.365
		c-0.593,0.711-1.128,1.47-1.704,2.196c-0.609,0.767-1.206,1.547-1.86,2.274c-1.518,1.689-2.891,3.494-4.322,5.253
		c-1.204,1.48-2.493,2.891-3.705,4.365c-1.144,1.392-2.221,2.839-3.357,4.238c-0.715,0.881-1.487,1.716-2.225,2.58
		c-0.267,0.312-0.5,0.653-0.761,0.971c-1.111,1.356-2.221,2.712-3.343,4.059c-0.661,0.793-1.359,1.554-2.01,2.355
		c-0.715,0.878-1.373,1.803-2.094,2.675c-1.644,1.986-3.318,3.947-4.967,5.928c-1.45,1.743-2.882,3.501-4.324,5.251
		c-1.475,1.79-2.953,3.577-4.427,5.368c-1.407,1.711-2.806,3.43-4.215,5.14c-1.508,1.83-3.023,3.654-4.535,5.48
		c-0.986,1.191-1.981,2.374-2.955,3.575c-0.583,0.719-1.125,1.473-1.701,2.198c-0.609,0.767-1.208,1.545-1.862,2.273
		c-1.518,1.689-2.888,3.497-4.322,5.253c-1.206,1.478-2.494,2.891-3.705,4.365c-1.144,1.392-2.221,2.839-3.356,4.239
		c-0.715,0.881-1.491,1.714-2.225,2.58c-0.299,0.352-0.548,0.747-0.841,1.105c-1.046,1.276-2.106,2.541-3.151,3.817
		c-0.848,1.036-1.677,2.089-2.527,3.122c-0.623,0.757-1.279,1.486-1.901,2.244c-0.817,0.995-1.609,2.01-2.423,3.008
		c-0.587,0.719-1.191,1.425-1.791,2.134c-0.397,0.47-0.799,0.935-1.202,1.406c-0.248,0.116-0.404-0.077-0.517-0.219
		c-1.127-1.406-2.228-2.832-3.359-4.234c-0.648-0.803-1.349-1.562-2.005-2.359c-0.784-0.954-1.538-1.934-2.319-2.891
		c-0.62-0.759-1.269-1.494-1.892-2.251c-1.374-1.671-2.726-3.36-4.111-5.022c-1.221-1.466-2.477-2.904-3.71-4.36
		c-0.466-0.551-0.907-1.122-1.366-1.678c-1.474-1.79-2.977-3.557-4.417-5.374c-0.961-1.213-1.908-2.432-2.96-3.57
		c-0.559-0.605-1.051-1.271-1.565-1.917c-0.705-0.886-1.395-1.783-2.103-2.666c-1.773-2.209-3.69-4.299-5.376-6.583
		c-0.702-0.952-1.551-1.797-2.334-2.689c-0.103-0.117-0.231-0.214-0.322-0.338c-1.346-1.828-2.822-3.547-4.309-5.262
		c-1.179-1.36-2.215-2.842-3.357-4.235c-1.21-1.475-2.492-2.891-3.704-4.364c-1.144-1.391-2.229-2.831-3.359-4.234
		c-0.647-0.803-1.344-1.566-2-2.363c-0.785-0.954-1.542-1.93-2.324-2.886c-0.62-0.759-1.225-1.534-1.896-2.246
		c-0.923-0.979-1.713-2.058-2.531-3.12c-0.692-0.898-1.48-1.721-2.218-2.584c-0.536-0.627-1.07-1.256-1.584-1.9
		c-1.123-1.408-2.227-2.833-3.352-4.24c-0.58-0.725-1.172-1.441-1.791-2.133c-1.479-1.653-2.826-3.411-4.218-5.135
		c-1.198-1.484-2.49-2.893-3.702-4.366c-1.145-1.391-2.231-2.829-3.359-4.234c-0.614-0.764-1.227-1.532-1.901-2.242
		c-0.927-0.977-1.706-2.063-2.527-3.123c-0.725-0.937-1.551-1.797-2.334-2.689c-0.137-0.156-0.298-0.293-0.42-0.459
		c-1.282-1.747-2.682-3.395-4.109-5.024c-0.642-0.733-1.171-1.565-1.781-2.329c-0.611-0.766-1.223-1.537-1.896-2.246
		c-0.927-0.976-1.711-2.059-2.529-3.122c-0.691-0.898-1.483-1.719-2.22-2.583c-0.502-0.588-0.99-1.187-1.477-1.788
		c-1.263-1.561-2.513-3.133-3.786-4.686c-0.687-0.838-1.418-1.639-2.117-2.467c-0.432-0.512-0.838-1.044-1.259-1.565
		c-1.26-1.563-2.51-3.136-3.787-4.685c-0.755-0.916-1.58-1.774-2.328-2.696c-1.135-1.399-2.188-2.866-3.354-4.238
		c-1.409-1.656-2.623-3.446-3.805-5.258c-1.525-2.337-2.871-4.776-4.125-7.275c-1.788-3.563-3.244-7.25-4.397-11.055
		c-0.654-2.157-1.298-4.34-1.655-6.558c-0.26-1.615-0.84-3.198-0.724-4.871c-0.359-1.049-0.127-2.179-0.357-3.214
		c-0.401-1.809-0.208-3.611-0.254-5.414c-0.045-1.765-0.037-3.532,0.007-5.297c0.018-0.713,0.228-1.419,0.285-2.134
		c0.058-0.718-0.077-1.457,0.284-2.134c-0.044-1.51,0.419-2.945,0.638-4.417c0.22-1.477,0.571-2.918,0.951-4.354
		c0.472-1.788,0.912-3.584,1.542-5.331c0.964-2.67,1.927-5.338,3.219-7.87c1.082-2.12,2.139-4.26,3.351-6.305
		c1.102-1.86,2.362-3.631,3.617-5.394c0.985-1.383,2.069-2.695,3.11-4.038c0.032-0.041,0.067-0.08,0.102-0.117
		c1.666-1.773,3.214-3.679,5.032-5.28c1.735-1.528,3.314-3.265,5.319-4.478c2.627-2.356,5.674-4.111,8.636-5.981
		c1.133-0.715,2.407-1.203,3.599-1.829c3.577-1.878,7.317-3.345,11.183-4.505c2.462-0.739,4.929-1.442,7.475-1.843
		c1.672-0.264,3.333-0.596,5.002-0.878c0.355-0.06,0.725-0.03,1.088-0.043c0.617-0.022,1.229,0.032,1.84-0.208
		c0.367-0.144,0.817-0.099,1.23-0.1c2.857-0.007,5.713-0.005,8.57-0.002c0.568,0,1.139-0.046,1.681,0.22
		c0.175,0.086,0.405,0.079,0.611,0.084c2.789,0.073,5.495,0.686,8.228,1.179c3.517,0.634,6.874,1.775,10.234,2.914
		c1.51,0.512,2.96,1.203,4.428,1.834c1.042,0.448,2.1,0.876,3.097,1.412c1.725,0.927,3.438,1.884,5.102,2.917
		c1.791,1.112,3.526,2.316,5.271,3.5c0.382,0.26,0.68,0.641,1.057,0.911c1.386,0.996,2.612,2.183,3.927,3.255
		c1.658,1.351,3.12,2.882,4.605,4.392c1.044,1.062,1.934,2.274,2.898,3.416c0.234,0.277,0.509,0.521,0.727,0.809
		c1.682,2.214,3.415,4.388,4.813,6.809c0.645,1.115,1.427,2.151,1.978,3.326C247.728,176.289,247.944,176.384,248.13,176.539z
		 M154.838,191.984c0.171,0.416,0.265,0.708,0.406,0.975c0.653,1.233,1.332,2.451,1.978,3.687
		c2.804,5.369,5.368,10.858,8.241,16.196c2.968,5.515,5.557,11.227,8.525,16.747c2.893,5.38,5.436,10.94,8.321,16.33
		c3.126,5.841,5.899,11.867,9.029,17.712c2.688,5.019,5.064,10.199,7.752,15.223c3.053,5.706,5.746,11.6,8.814,17.304
		c2.673,4.969,5.015,10.107,7.688,15.082c3.062,5.7,5.747,11.595,8.814,17.298c2.795,5.197,5.252,10.568,8.036,15.776
		c3.074,5.751,5.802,11.684,8.873,17.442c1.974,3.701,3.765,7.501,5.661,11.244c0.169,0.333,0.2,0.832,0.746,0.913
		c0.111-0.162,0.247-0.322,0.341-0.504c1.252-2.441,2.493-4.886,3.781-7.31c2.916-5.488,5.522-11.136,8.466-16.615
		c2.892-5.383,5.448-10.941,8.323-16.339c3.116-5.851,5.901-11.874,9.031-17.723c2.688-5.022,5.059-10.208,7.758-15.231
		c2.991-5.565,5.603-11.328,8.601-16.895c2.874-5.335,5.392-10.853,8.255-16.199c3.079-5.753,5.802-11.692,8.885-17.448
		c2.739-5.114,5.159-10.39,7.905-15.505c2.964-5.521,5.576-11.225,8.54-16.752c2.767-5.157,5.165-10.504,7.976-15.643
		c1.591-2.908,2.992-5.921,4.461-8.896c0.124-0.251,0.39-0.511,0.147-0.934c-0.134-0.025-0.327-0.093-0.519-0.093
		c-14.744-0.005-29.488-0.004-44.238-0.004c-0.287,0.531-0.557,0.972-0.773,1.438c-1.15,2.485-2.285,4.977-3.429,7.465
		c-1.274,2.77-2.548,5.541-3.829,8.308c-1.324,2.861-2.66,5.717-3.984,8.578c-1.26,2.72-2.511,5.443-3.767,8.165
		c-1.256,2.722-2.511,5.444-3.767,8.165c-1.234,2.674-2.468,5.349-3.705,8.022c-1.368,2.955-2.743,5.907-4.112,8.862
		c-1.216,2.626-2.43,5.252-3.642,7.88c-1.278,2.769-2.552,5.539-3.83,8.308c-1.213,2.627-2.429,5.253-3.642,7.88
		c-1.3,2.816-2.585,5.638-3.9,8.447c-1.096,2.343-2.229,4.669-3.338,7.006c-0.132,0.277-0.201,0.584-0.33,0.864
		c-0.514,1.12-1.01,2.252-1.755,3.368c-0.193-0.279-0.367-0.468-0.47-0.691c-0.303-0.654-0.566-1.326-0.867-1.981
		c-1.227-2.676-2.459-5.35-3.696-8.022c-1.367-2.954-2.745-5.903-4.113-8.856c-1.237-2.671-2.468-5.346-3.702-8.019
		c-1.256-2.72-2.513-5.44-3.768-8.16c-1.233-2.673-2.465-5.347-3.698-8.02c-1.255-2.72-2.511-5.44-3.77-8.159
		c-1.346-2.906-2.699-5.81-4.045-8.716c-1.258-2.719-2.511-5.44-3.766-8.16c-1.233-2.673-2.467-5.346-3.701-8.019
		c-1.256-2.72-2.501-5.445-3.772-8.158c-1.097-2.341-2.224-4.668-3.338-7.002c-0.089-0.187-0.183-0.372-0.268-0.561
		c-0.934-2.07-1.869-4.139-2.798-6.211c-0.401-0.894-0.776-1.801-1.192-2.688c-0.214-0.457-0.492-0.884-0.712-1.271
		C196.804,191.705,156.242,191.776,154.838,191.984z"/>
	<path style="fill:#231F20;" d="M103.139,145.046c3.797,3.005,7.619,6.03,11.431,9.047c0.06,0.478-0.151,0.814-0.422,1.141
		c-0.984,1.192-1.978,2.378-2.925,3.6c-0.314,0.406-0.502,0.909-1.016,1.132c-0.052-0.003-0.104-0.002-0.155-0.011
		c-0.05-0.009-0.108-0.014-0.145-0.043c-9.154-7.253-18.307-14.508-27.456-21.769c-0.198-0.157-0.346-0.377-0.571-0.627
		c0.32-0.593,0.686-1.123,1.116-1.639c1.088-1.304,2.118-2.656,3.171-3.989c0.446-0.566,0.889-1.135,1.335-1.701
		c1.212-1.537,2.441-3.061,3.633-4.613c1.299-1.692,2.838-3.154,4.35-4.642c0.511-0.504,1.085-0.953,1.672-1.368
		c1.255-0.888,2.635-1.291,4.206-1.324c2.322-0.05,4.418,0.537,6.233,1.92c1.861,1.419,3.561,3.03,4.141,5.446
		c0.203,0.844,0.576,1.73,0.472,2.547c-0.193,1.514-0.45,3.049-1.146,4.456c-0.198,0.4-0.294,0.851-0.5,1.466
		c0.966-0.231,1.765-0.353,2.509-0.624c0.511-0.186,1.007-0.191,1.521-0.228c0.408-0.029,0.81-0.125,1.217-0.176
		c0.303-0.038,0.665-0.169,0.904-0.055c0.703,0.334,1.427,0.202,2.145,0.236c0.822,0.039,1.656-0.105,2.454,0.254
		c0.221,0.099,0.511,0.05,0.77,0.057c0.67,0.018,1.353-0.077,1.982,0.259c0.043,0.023,0.101,0.021,0.153,0.025
		c1.386,0.114,2.77,0.256,4.158,0.33c0.632,0.034,1.21,0.127,1.77,0.593c-0.079,0.206-0.117,0.479-0.266,0.663
		c-1.036,1.283-2.097,2.547-3.147,3.819c-0.459,0.556-0.89,1.138-1.382,1.663c-0.195,0.208-0.517,0.394-0.792,0.41
		c-0.774,0.046-1.584,0.123-2.323-0.05c-0.669-0.157-1.32-0.211-1.99-0.227c-0.926-0.023-1.852,0.077-2.768-0.256
		c-0.416-0.151-0.925-0.04-1.392-0.055c-0.874-0.029-1.761,0.111-2.61-0.262c-0.221-0.097-0.513-0.046-0.772-0.047
		c-1.194-0.004-2.389-0.019-3.583,0.003c-1.286,0.023-2.435,0.406-3.337,1.379c-0.877,0.946-1.939,1.731-2.556,2.904
		C103.183,144.772,103.179,144.877,103.139,145.046z M98.415,141.066c0.402-0.475,0.777-0.893,1.124-1.332
		c0.894-1.131,1.789-2.261,2.659-3.41c0.963-1.273,1.987-2.513,2.823-3.866c1.048-1.697,0.742-3.936-0.735-5.182
		c-0.432-0.365-0.873-0.74-1.367-1.005c-0.682-0.367-1.452-0.702-2.221-0.485c-1.248,0.352-2.431,0.878-3.263,1.963
		c-1.001,1.307-2.006,2.612-3.027,3.902c-0.988,1.249-2.001,2.478-2.988,3.698C92.241,136.513,95.838,139.458,98.415,141.066z"/>
	<path style="fill:#231F20;" d="M454.466,216.627c-1.912,0.591-3.678,1.133-5.443,1.684c-3.193,0.996-6.382,2.005-9.577,2.995
		c-2.506,0.776-5.02,1.525-7.527,2.297c-2.901,0.894-5.795,1.809-8.699,2.695c-1.077,0.329-2.171,0.602-3.352,0.927
		c-0.2-0.476-0.43-0.926-0.581-1.401c-0.499-1.566-0.944-3.151-1.465-4.71c-0.207-0.62-0.094-1.058,0.323-1.549
		c1.201-1.415,2.482-2.756,3.643-4.209c1.029-1.289,2.221-2.447,3.323-3.679c0.515-0.575,0.979-1.195,1.482-1.781
		c0.503-0.586,1.185-1.018,1.503-1.765c0.039-0.091,0.124-0.165,0.194-0.241c1.114-1.221,2.251-2.423,3.338-3.668
		c1.186-1.358,2.327-2.755,3.48-4.142c0.053-0.064,0.032-0.19,0.059-0.387c-0.203,0.015-0.395-0.006-0.563,0.047
		c-2.259,0.707-4.513,1.43-6.772,2.138c-2.749,0.862-5.498,1.722-8.252,2.565c-1.77,0.541-3.547,1.061-5.326,1.569
		c-0.788,0.225-0.987,0.112-1.245-0.677c-0.512-1.563-1.011-3.13-1.491-4.703c-0.071-0.233-0.01-0.506-0.01-0.819
		c0.312-0.16,0.611-0.371,0.944-0.474c2.26-0.697,4.524-1.383,6.793-2.049c3.355-0.985,6.669-2.104,10.042-3.034
		c1.983-0.547,3.93-1.227,5.893-1.846c3.14-0.989,6.279-1.983,9.423-2.958c0.386-0.12,0.806-0.134,1.141-0.186
		c0.587,0.262,0.576,0.782,0.713,1.209c0.438,1.37,0.867,2.743,1.278,4.121c0.101,0.34,0.134,0.704,0.174,1.059
		c0.048,0.434-0.092,0.792-0.403,1.124c-1.203,1.28-2.392,2.575-3.567,3.88c-0.516,0.574-0.979,1.196-1.483,1.781
		c-0.504,0.586-1.18,1.021-1.506,1.763c-0.06,0.136-0.193,0.242-0.299,0.356c-1.225,1.331-2.575,2.569-3.64,4.018
		c-1.017,1.384-2.468,2.369-3.333,3.866c-0.076,0.131-0.211,0.228-0.316,0.343c-1.077,1.185-2.156,2.368-3.227,3.559
		c-0.091,0.101-0.124,0.254-0.24,0.503c0.347-0.048,0.602-0.05,0.836-0.121c1.279-0.389,2.552-0.796,3.828-1.194
		c3.242-1.01,6.482-2.024,9.727-3.024c2.359-0.727,4.724-1.436,7.089-2.143c0.288-0.086,0.595-0.111,0.911-0.167
		c0.831,0.924,0.768,2.143,1.194,3.173C453.891,214.361,454.113,215.429,454.466,216.627z"/>
	<path style="fill:#231F20;" d="M408.419,139.51c-0.569-0.378-1.067-0.653-1.5-1.007c-1.392-1.139-2.76-2.308-4.2-3.518
		c0.207-0.464,0.385-0.879,0.576-1.287c0.977-2.095,0.956-4.176-0.033-6.269c-0.952-2.015-2.329-3.658-4.209-4.85
		c-1.508-0.957-3.179-1.542-4.968-1.47c-1.274,0.051-2.534,0.355-3.733,0.875c-2.865,1.243-5.201,3.194-7.214,5.513
		c-1.324,1.525-2.341,3.312-2.736,5.317c-0.331,1.681-0.207,3.391,0.472,5.015c0.542,1.296,1.257,2.502,2.165,3.557
		c0.563,0.654,1.299,1.174,2.005,1.689c1.432,1.046,3.055,1.706,4.741,2.221c0.408,0.124,0.821,0.151,1.178-0.151
		c0.866-0.733,1.844-1.339,2.567-2.236c0.126-0.156,0.227-0.333,0.355-0.524c-0.948-1.077-1.871-2.116-2.783-3.166
		c-0.643-0.739-1.287-1.479-1.894-2.247c-0.18-0.228-0.238-0.553-0.371-0.881c1.402-1.415,2.99-2.548,4.584-3.839
		c3.393,4.021,6.737,7.985,10.09,11.959c-0.068,0.154-0.092,0.332-0.195,0.423c-0.695,0.614-1.37,1.261-2.12,1.801
		c-1.301,0.938-2.424,2.08-3.668,3.082c-0.922,0.742-1.862,1.462-2.77,2.219c-0.477,0.397-0.911,0.847-1.353,1.285
		c-0.469,0.466-0.957,0.606-1.663,0.519c-1.461-0.179-2.81-0.687-4.123-1.254c-1.702-0.735-3.359-1.574-4.883-2.672
		c-2.112-1.52-4.026-3.221-5.517-5.366c-0.616-0.887-1.247-1.769-1.798-2.696c-0.825-1.386-1.192-2.958-1.665-4.481
		c-0.276-0.89-0.409-1.808-0.33-2.749c0.026-0.309,0.02-0.624,0.002-0.934c-0.196-3.343,0.953-6.273,2.73-9.022
		c0.956-1.479,1.981-2.903,3.268-4.106c2.474-2.312,5.231-4.222,8.473-5.269c1.402-0.453,2.848-0.921,4.387-0.784
		c0.67,0.06,1.349,0.015,2.024,0.009c1.673-0.015,3.242,0.409,4.807,0.979c2.393,0.871,4.297,2.394,6.086,4.141
		c2.02,1.973,3.626,4.226,4.859,6.756c0.591,1.214,0.952,2.493,1.085,3.838c0.03,0.303,0.141,0.598,0.187,0.9
		c0.054,0.356,0.145,0.724,0.104,1.073c-0.297,2.485-1.029,4.829-2.363,6.963C408.944,139.079,408.713,139.228,408.419,139.51z"/>
	<path style="fill:#231F20;" d="M256.352,81.978c0.084-0.976,0-1.845,0.259-2.594c0.399-1.152,0.134-2.355,0.512-3.511
		c0.246-0.754,0.18-1.617,0.341-2.435c0.236-1.205,0.23-2.455,0.364-3.682c0.078-0.713,0.426-1.389,0.303-2.132
		c0.465-1.119,0.102-2.369,0.557-3.492c0.056-0.138,0.066-0.307,0.055-0.459c-0.061-0.837,0.16-1.633,0.292-2.447
		c0.123-0.756,0.116-1.521,0.286-2.292c0.253-1.146,0.108-2.388,0.412-3.514c0.314-1.162,0.192-2.348,0.486-3.511
		c0.22-0.871,0.363-1.825,0.37-2.739c0.008-1.049,0.369-2.002,0.461-3.043c1.651,0.163,3.23,0.291,4.801,0.484
		c1.016,0.125,2.021,0.345,3.031,0.523c0.102,0.018,0.201,0.053,0.304,0.062c1.23,0.114,2.472,0.156,3.689,0.351
		c2.531,0.405,5.103,0.645,7.532,1.545c2.933,1.087,5.119,3.041,6.639,5.766c0.939,1.684,1.534,3.493,1.856,5.377
		c0.225,1.315,0.299,2.659,0.376,3.994c0.029,0.501-0.124,1.013-0.193,1.521c-0.035,0.255-0.104,0.512-0.095,0.766
		c0.08,2.193-0.471,4.296-1.033,6.372c-0.597,2.202-1.693,4.188-3.052,6.042c-0.933,1.273-2.078,2.272-3.33,3.191
		c-0.936,0.687-2,1.049-3.09,1.375c-1.179,0.352-3.949,0.84-4.855,0.802c-0.409-0.017-0.815-0.103-1.221-0.165
		c-0.254-0.039-0.514-0.155-0.757-0.125c-1.31,0.163-2.554-0.375-3.849-0.335c-1.105-0.545-2.339-0.203-3.503-0.536
		c-1.12-0.32-2.348-0.244-3.521-0.399C259.31,82.544,257.824,82.428,256.352,81.978z M264.6,76.736
		c0.324,0.155,0.545,0.335,0.782,0.361c1.277,0.139,2.559,0.24,3.838,0.354c0.155,0.014,0.334-0.02,0.46,0.047
		c0.684,0.36,1.418,0.244,2.137,0.257c0.778,0.013,1.555-0.005,2.333,0.004c1.789,0.022,3.199-0.782,4.292-2.109
		c0.55-0.667,1.026-1.45,1.326-2.259c0.748-2.021,1.381-4.085,1.426-6.274c0.005-0.255,0.065-0.51,0.103-0.764
		c0.066-0.455,0.175-0.908,0.194-1.365c0.032-0.776-0.025-1.557,0.017-2.332c0.067-1.259-0.249-2.436-0.604-3.628
		c-0.782-2.623-2.779-3.87-5.185-4.599c-1.12-0.339-2.307-0.481-3.474-0.638c-1.516-0.204-3.043-0.335-4.637-0.504
		c-0.15,0.929-0.32,1.827-0.434,2.731c-0.142,1.12-0.083,2.291-0.394,3.357c-0.338,1.159-0.183,2.343-0.496,3.505
		c-0.316,1.172-0.26,2.443-0.37,3.671c-0.014,0.154-0.04,0.307-0.072,0.458c-0.269,1.254-0.457,2.519-0.544,3.798
		c-0.018,0.258,0.002,0.523-0.053,0.772C264.881,73.234,264.744,74.915,264.6,76.736z"/>
	<path style="fill:#231F20;" d="M360.862,397.954c0.722,0.254,1.346,0.187,1.945,0.15c1.055-0.066,2.064,0.143,3.043,0.454
		c2.456,0.779,4.852,1.718,7.199,2.788c1.873,0.855,3.786,1.624,5.678,2.438c0.082,0.035,0.134,0.141,0.28,0.301
		c-0.149,0.197-0.279,0.489-0.504,0.646c-2.07,1.439-4.156,2.855-6.246,4.284c-3.812-1.52-7.584-3.036-11.367-4.524
		c-0.957-0.377-1.93-0.761-2.931-0.97c-1.729-0.36-3.396-0.113-4.894,0.908c-0.72,0.491-1.439,0.985-2.226,1.524
		c0.689,1.469,1.802,2.627,2.638,3.962c0.873,1.395,1.861,2.718,2.796,4.074c0.9,1.306,1.798,2.613,2.683,3.901
		c-0.796,1.019-2.963,2.563-5.86,4.187c-0.863-1.251-1.792-2.463-2.649-3.739c-1.866-2.778-3.816-5.499-5.717-8.254
		c-1.463-2.12-2.883-4.269-4.359-6.379c-2.126-3.038-4.3-6.041-6.279-9.178c-0.288-0.457-0.98-0.699-0.803-1.41
		c0.146-0.585,0.766-0.656,1.149-0.982c0.625-0.53,1.335-0.961,2.014-1.427c3.61-2.473,7.226-4.94,10.832-7.419
		c1.451-0.997,2.974-1.857,4.64-2.435c2.132-0.74,4.191-0.63,6.3,0.291c2.536,1.107,4.186,3.064,5.317,5.405
		c1.444,2.988,1.155,6.024-0.635,8.841C362.358,396.255,361.629,397.004,360.862,397.954z M347.362,401.104
		c0.34-0.149,0.648-0.229,0.893-0.4c2.485-1.742,4.974-3.481,7.431-5.263c0.945-0.686,1.641-1.633,1.825-2.797
		c0.385-2.438-1.863-5.339-4.518-5.142c-0.884,0.065-1.611,0.403-2.289,0.854c-2.615,1.739-5.201,3.523-7.792,5.297
		c-0.118,0.081-0.184,0.239-0.34,0.449C344.157,396.42,345.749,398.747,347.362,401.104z"/>
	<path style="fill:#231F20;" d="M252.91,415.895c5.247,7.175,10.249,14.455,15.399,21.557c0.432-0.117,0.402-0.35,0.404-0.543
		c0.01-0.934,0.048-1.871-0.003-2.802c-0.048-0.869-0.233-1.731-0.288-2.6c-0.053-0.827,0.137-1.697-0.052-2.483
		c-0.322-1.337-0.09-2.695-0.309-4.003c-0.284-1.702-0.071-3.422-0.334-5.089c-0.212-1.346-0.216-2.671-0.244-4.009
		c-0.005-0.251,0.047-0.502,0.081-0.827c2.114-0.312,4.18-0.696,6.271-0.355c0.45,1.127,0.546,2.243,0.509,3.389
		c-0.026,0.821-0.001,1.629,0.219,2.456c0.195,0.73,0.06,1.545,0.084,2.323c0.025,0.77-0.029,1.529,0.222,2.303
		c0.184,0.568,0.064,1.233,0.089,1.854c0.039,0.976-0.04,1.942,0.239,2.924c0.205,0.723,0.053,1.545,0.074,2.323
		c0.017,0.616-0.022,1.22,0.204,1.838c0.17,0.464,0.08,1.023,0.104,1.54c0.053,1.13-0.12,2.266,0.264,3.387
		c0.16,0.467,0.034,1.029,0.049,1.548c0.028,0.925,0.001,1.836,0.235,2.767c0.209,0.832,0.056,1.753,0.077,2.635
		c0.015,0.616-0.027,1.22,0.209,1.836c0.219,0.571,0.138,1.214,0.019,1.791c-1.307,0.432-2.573,0.566-3.869,0.518
		c-0.771-0.028-1.541-0.05-2.294,0.254c-0.389,0.157-0.821,0.032-1.133-0.317c-0.207-0.231-0.45-0.436-0.627-0.688
		c-1.303-1.853-2.572-3.73-3.893-5.57c-1.531-2.132-3.11-4.23-4.657-6.351c-0.637-0.873-1.243-1.77-1.866-2.653
		c-1.276-1.81-2.553-3.62-3.837-5.424c-0.044-0.062-0.175-0.061-0.266-0.09c-0.063,0.07-0.181,0.14-0.181,0.21
		c0,1.389-0.184,2.775,0.199,4.165c0.187,0.678,0.048,1.444,0.07,2.169c0.025,0.822-0.014,1.631,0.225,2.457
		c0.195,0.674,0.065,1.441,0.086,2.166c0.021,0.719,0.035,1.422,0.213,2.146c0.193,0.786,0.069,1.649,0.101,2.477
		c0.028,0.718,0.06,1.422,0.197,2.146c0.246,1.307,0.187,2.663-0.002,4.044c-2.106,0.125-4.122,0.701-6.23,0.294
		c-0.395-0.952-0.549-1.941-0.527-2.984c0.02-0.974,0.038-1.939-0.235-2.922c-0.215-0.772-0.049-1.649-0.065-2.48
		c-0.012-0.668,0.045-1.332-0.214-1.993c-0.144-0.366-0.075-0.816-0.094-1.229c-0.054-1.13,0.12-2.266-0.269-3.387
		c-0.161-0.465-0.026-1.029-0.046-1.548c-0.04-1.027,0.11-2.057-0.261-3.077c-0.167-0.461-0.031-1.028-0.05-1.547
		c-0.034-0.924,0.037-1.838-0.245-2.768c-0.203-0.668-0.046-1.442-0.067-2.168c-0.024-0.822,0.005-1.629-0.228-2.458
		c-0.203-0.724-0.057-1.544-0.084-2.321c-0.027-0.77,0.049-1.53-0.227-2.303c-0.178-0.499-0.033-1.114-0.033-1.686
		c1.017-0.411,2.007-0.593,3.057-0.555c1.028,0.038,2.066,0.092,3.069-0.275C252.374,415.825,252.656,415.895,252.91,415.895z"/>
	<path style="fill:#231F20;" d="M190.593,431.946c0.485-1.135,0.979-2.263,1.44-3.404c0.069-0.17-0.019-0.404-0.039-0.665
		c-2.284-1.173-4.783-1.879-7.102-3.154c0.222-0.993,0.64-1.867,1.017-2.752c0.378-0.888,0.581-1.873,1.297-2.563
		c1.282,0.268,10.029,3.951,13.995,5.693c-0.092,0.369-0.144,0.774-0.291,1.141c-1.111,2.773-2.23,5.543-3.369,8.306
		c-0.413,1.001-0.911,1.968-1.318,2.972c-0.219,0.54-0.632,0.796-1.117,1c-0.14,0.059-0.299,0.076-0.45,0.108
		c-1.713,0.368-3.429,0.623-5.197,0.654c-3.036,0.054-5.941-0.518-8.781-1.505c-2.36-0.821-4.459-2.09-6.419-3.651
		c-1.271-1.012-2.231-2.251-3.2-3.51c-1.063-1.381-1.57-3.005-2.049-4.642c-0.262-0.896-0.39-1.809-0.329-2.75
		c0.037-0.569,0.039-1.144,0.001-1.712c-0.187-2.804,0.652-5.388,1.63-7.955c0.555-1.457,1.202-2.859,2.168-4.085
		c1.077-1.367,2.004-2.829,3.486-3.891c1.137-0.815,2.246-1.632,3.51-2.237c1.98-0.947,4.046-1.431,6.252-1.51
		c2.704-0.097,5.178,0.682,7.657,1.597c1.514,0.559,2.924,1.31,4.256,2.182c1.419,0.93,2.728,1.995,3.708,3.457
		c0.961,1.434,1.697,2.928,2.077,4.604c0.046,0.201,0.148,0.398,0.149,0.597c0.013,1.394,0.007,2.789,0.007,4.185
		c-0.564,0.334-1.087,0.266-1.58,0.175c-1.513-0.279-3.022-0.584-4.525-0.911c-0.338-0.074-0.648-0.279-0.94-0.411
		c-0.153-0.98-0.191-1.924-0.466-2.793c-0.276-0.873-0.668-1.764-1.223-2.483c-0.986-1.28-2.258-2.239-3.781-2.889
		c-1.928-0.824-3.934-0.879-5.942-0.691c-1.237,0.115-2.428,0.689-3.374,1.474c-1.39,1.152-2.676,2.446-3.422,4.163
		c-0.535,1.231-1.231,2.406-1.642,3.675c-0.455,1.406-0.932,2.834-0.841,4.368c0.067,1.129-0.055,2.26,0.303,3.377
		c0.351,1.095,0.811,2.101,1.555,2.99c0.766,0.916,1.635,1.694,2.646,2.329c1.015,0.638,2.125,0.98,3.277,1.284
		c1.59,0.42,3.189,0.27,4.784,0.258C189.115,432.366,189.816,432.106,190.593,431.946z"/>
	<path style="fill:#231F20;" d="M394.564,370.62c-1.148,1.268-2.369,2.222-3.268,3.523c-0.578,0.836-1.407,1.493-2.23,2.251
		c-1.518-1.397-2.948-2.713-4.418-4.065c0.122-0.194,0.204-0.386,0.339-0.526c3.055-3.171,6.115-6.337,9.177-9.501
		c0.359-0.371,0.743-0.719,1.18-1.14c0.257,0.192,0.508,0.349,0.721,0.546c0.38,0.353,0.754,0.716,1.102,1.099
		c2.199,2.419,4.797,4.42,7.074,6.757c0.109,0.112,0.207,0.239,0.332,0.328c1.057,0.743,1.107,1.779,0.859,2.906
		c-0.121,0.549-0.249,1.097-0.359,1.649c-0.373,1.885-1.131,3.652-1.959,5.348c-0.876,1.794-1.888,3.558-3.367,4.979
		c-0.698,0.67-1.324,1.407-2.03,2.079c-2.508,2.389-5.479,3.814-8.795,4.618c-0.298,0.072-0.614,0.089-0.922,0.099
		c-0.519,0.016-1.04-0.021-1.557,0.01c-2.655,0.158-5.088-0.641-7.442-1.74c-1.737-0.811-3.363-1.796-4.736-3.169
		c-0.543-0.543-1.252-0.929-1.763-1.496c-2.519-2.799-4.479-5.933-5.194-9.682c-0.209-1.096-0.613-2.22-0.401-3.357
		c0.253-1.357,0.416-2.729,0.816-4.066c0.726-2.426,1.955-4.53,3.666-6.379c0.559-0.604,0.996-1.335,1.605-1.877
		c1.498-1.336,3.022-2.678,4.84-3.56c1.762-0.855,3.622-1.468,5.629-1.455c2.067,0.013,4.598,0.793,6.781,2.14
		c-0.247,0.421-0.486,0.858-0.753,1.277c-0.888,1.39-1.789,2.772-2.681,4.16c-0.323,0.503-0.67,0.695-1.165,0.378
		c-0.926-0.593-1.997-0.463-2.986-0.698c-0.588-0.14-1.307,0.172-1.944,0.36c-1.2,0.354-2.307,0.866-3.17,1.843
		c-0.785,0.89-1.733,1.637-2.339,2.684c-0.893,1.543-1.427,3.19-1.458,4.985c-0.026,1.488,0.523,2.836,1.179,4.107
		c0.904,1.752,2.102,3.33,3.628,4.591c1.743,1.44,3.496,2.878,5.709,3.606c1.457,0.479,2.952,0.641,4.432,0.446
		c1.536-0.202,3-0.776,4.207-1.812c2.046-1.756,3.542-3.891,4.34-6.487c0.166-0.539,0.364-1.074,0.459-1.626
		c0.077-0.446,0.157-0.949-0.22-1.329C396.571,372.511,395.713,371.543,394.564,370.62z"/>
	<path style="fill:#231F20;" d="M301.409,417.669c0.022-3.961,1.02-7.032,2.974-9.718c0.961-1.321,2.19-2.467,3.563-3.437
		c2.308-1.63,4.839-2.713,7.552-3.447c1.828-0.494,3.688-0.586,5.535-0.416c1.422,0.131,2.807,0.578,4.164,1.087
		c1.819,0.682,3.345,1.819,4.807,3.025c0.824,0.679,1.51,1.564,2.125,2.449c1.207,1.738,2.241,3.574,3.024,5.561
		c0.53,1.346,1.024,2.692,1.369,4.093c0.486,1.975,0.612,3.998,0.405,6c-0.175,1.682-0.685,3.334-1.395,4.873
		c-0.447,0.968-0.965,1.938-1.734,2.735c-0.427,0.442-0.709,1.036-1.167,1.435c-1.28,1.115-2.562,2.223-4.091,3.025
		c-1.981,1.039-4.053,1.809-6.223,2.297c-1.098,0.247-2.233,0.387-3.358,0.447c-1.343,0.071-2.661-0.229-3.945-0.608
		c-1.685-0.498-3.354-1.049-4.773-2.146c-0.325-0.251-0.663-0.489-0.962-0.769c-0.493-0.46-0.939-0.972-1.44-1.423
		c-1.766-1.591-2.99-3.564-3.925-5.71c-0.779-1.79-1.466-3.618-1.906-5.538C301.674,420.024,301.319,418.581,301.409,417.669z
		 M329.477,421.329c0.194-1.443-0.165-2.957-0.734-4.394c-0.626-1.58-1.292-3.171-2.171-4.616c-0.843-1.386-1.742-2.77-3.221-3.679
		c-2.274-1.397-4.624-1.874-7.242-1.226c-1.337,0.33-2.484,0.979-3.627,1.674c-0.437,0.265-0.91,0.544-1.217,0.934
		c-0.699,0.885-1.446,1.747-1.89,2.812c-0.482,1.156-0.448,2.414-0.754,3.603c-0.025,0.097-0.017,0.209,0,0.31
		c0.151,0.856,0.298,1.713,0.464,2.566c0.399,2.046,1.238,3.925,2.255,5.725c0.968,1.715,2.071,3.304,3.8,4.39
		c1.947,1.224,3.572,1.574,5.941,1.456c1.459-0.073,2.706-0.568,3.938-1.231c1.993-1.074,3.359-2.658,4.088-4.826
		C329.478,423.717,329.521,422.604,329.477,421.329z"/>
	<path style="fill:#231F20;" d="M243.44,52.02c-0.829,0.382-1.569,0.553-2.367,0.508c-0.617-0.034-1.232-0.036-1.838,0.214
		c-0.317,0.131-0.716,0.051-1.075,0.092c-0.561,0.063-1.118,0.152-1.678,0.221c-0.307,0.038-0.616,0.074-0.925,0.083
		c-0.671,0.021-1.34-0.037-1.99,0.25c-0.266,0.117-0.613,0.056-0.924,0.063c-0.62,0.014-1.251-0.066-1.83,0.247
		c-0.044,0.024-0.099,0.031-0.15,0.035c-1.386,0.115-2.771,0.271-4.16,0.326c-0.793,0.031-1.533,0.147-2.291,0.575
		c0.461,2.428,0.333,4.961,1.023,7.473c0.441,0,0.884,0.11,1.233-0.024c0.611-0.237,1.221-0.186,1.838-0.225
		c0.409-0.026,0.814-0.107,1.221-0.162c0.356-0.048,0.712-0.121,1.07-0.137c0.67-0.029,1.339,0.03,1.989-0.25
		c0.268-0.115,0.614-0.057,0.924-0.066c0.619-0.018,1.249,0.069,1.829-0.249c0.085-0.047,0.206-0.06,0.305-0.048
		c1.461,0.176,2.865-0.374,4.316-0.338c0.354,0.009,0.725-0.051,1.064-0.156c0.666-0.208,1.313-0.184,2.039-0.025
		c0.07,1.053,0.552,2.008,0.418,3.06c-0.123,0.967,0.662,1.882,0.181,2.849c-0.059,0.055-0.095,0.121-0.133,0.121
		c-1.396,0.009-2.747,0.49-4.153,0.4c-1.277,0.488-2.682,0.084-3.964,0.571c-0.23,0.088-0.514,0.041-0.773,0.047
		c-0.67,0.018-1.353-0.075-1.986,0.254c-0.087,0.045-0.205,0.057-0.305,0.044c-1.461-0.179-2.865,0.345-4.316,0.35
		c-0.704,0.003-1.407,0.241-2.204,0.391c-0.025,0.324-0.159,0.671-0.048,0.896c0.271,0.547,0.218,1.107,0.258,1.673
		c0.037,0.509,0.146,1.012,0.208,1.52c0.044,0.358,0.079,0.719,0.092,1.08c0.023,0.618,0.061,1.216,0.218,1.835
		c0.187,0.733,0.112,1.533,0.151,2.303c0.458,0.346,0.912,0.241,1.367,0.164c0.505-0.085,1.012-0.182,1.522-0.219
		c0.566-0.041,1.125-0.003,1.679-0.237c0.315-0.133,0.715-0.068,1.078-0.081c0.567-0.02,1.131,0.031,1.683-0.216
		c0.267-0.12,0.61-0.085,0.919-0.094c0.67-0.02,1.339,0.034,1.989-0.247c0.268-0.116,0.614-0.057,0.924-0.067
		c0.619-0.019,1.25,0.071,1.83-0.249c0.085-0.047,0.206-0.06,0.305-0.048c1.461,0.176,2.865-0.367,4.316-0.342
		c0.4,0.007,0.801-0.168,1.206-0.207c0.397-0.038,0.801-0.008,1.251-0.008c0.156,0.706,0.465,1.366,0.408,1.993
		c-0.121,1.344,0.641,2.626,0.222,4.071c-1.188,0.017-2.301,0.405-3.5,0.435c-1.327,0.032-2.647,0.32-3.971,0.492
		c-0.307,0.04-0.615,0.081-0.923,0.093c-0.67,0.027-1.353-0.076-1.986,0.252c-0.087,0.045-0.205,0.059-0.304,0.047
		c-1.513-0.181-2.966,0.432-4.472,0.331c-1.283,0.457-2.682,0.099-3.963,0.566c-0.048,0.017-0.101,0.023-0.152,0.027
		c-1.334,0.114-2.669,0.225-4.003,0.34c-0.359,0.031-0.738,0.011-1.073,0.121c-0.919,0.303-1.83,0.19-2.707,0.112
		c-0.466-0.742-0.579-1.482-0.572-2.272c0.005-0.506-0.137-1.013-0.199-1.521c-0.044-0.358-0.081-0.718-0.094-1.079
		c-0.022-0.619,0.045-1.239-0.239-1.834c-0.104-0.218-0.067-0.508-0.074-0.766c-0.018-0.722,0.04-1.443-0.266-2.142
		c-0.116-0.265-0.04-0.614-0.048-0.925c-0.02-0.721,0.067-1.444-0.25-2.144c-0.119-0.263-0.054-0.613-0.061-0.923
		c-0.014-0.619,0.046-1.239-0.239-1.833c-0.104-0.217-0.065-0.508-0.071-0.766c-0.018-0.722,0.042-1.443-0.269-2.141
		c-0.117-0.263-0.035-0.615-0.046-0.926c-0.02-0.566,0.047-1.131-0.205-1.683c-0.122-0.266-0.091-0.608-0.103-0.917
		c-0.026-0.669,0.063-1.343-0.243-1.989c-0.103-0.218-0.061-0.509-0.07-0.767c-0.027-0.823,0.079-1.652-0.272-2.452
		c-0.116-0.264-0.033-0.615-0.042-0.927c-0.017-0.566,0.042-1.131-0.207-1.683c-0.121-0.267-0.089-0.608-0.101-0.917
		c-0.026-0.669,0.041-1.335-0.241-1.99c-0.134-0.312-0.051-0.715-0.076-1.076c-0.032-0.463-0.047-0.93-0.116-1.388
		c-0.107-0.709,0.044-0.947,0.731-1.006c1.334-0.114,2.708-0.058,3.992-0.374c1.32-0.324,2.694-0.03,3.975-0.532
		c0.273-0.107,0.617-0.03,0.928-0.04c0.669-0.022,1.355,0.096,1.984-0.25c0.043-0.024,0.101-0.023,0.152-0.028
		c1.334-0.116,2.669-0.227,4.002-0.348c0.409-0.037,0.816-0.1,1.223-0.155c0.356-0.048,0.71-0.127,1.068-0.148
		c0.668-0.038,1.354,0.081,1.983-0.259c0.043-0.023,0.101-0.023,0.153-0.028c1.334-0.115,2.669-0.219,4.002-0.348
		c0.457-0.044,0.91-0.137,1.36-0.23c0.897-0.186,1.299,0.097,1.362,0.964c0.101,1.386,0.214,2.771,0.31,4.158
		C243.495,51.423,243.456,51.681,243.44,52.02z"/>
	<path style="fill:#231F20;" d="M100.118,164.807c2.024,0.809,3.579,1.652,5.199,2.833c-0.201,0.447-0.395,0.919-0.622,1.375
		c-1.086,2.179-2.167,4.361-3.275,6.529c-1.719,3.364-3.445,6.725-5.193,10.074c-1.1,2.107-2.246,4.19-3.415,6.365
		c-0.365-0.158-0.735-0.3-1.088-0.475c-1.948-0.96-3.944-1.837-5.824-2.915c-3.143-1.802-6.483-3.215-9.637-4.978
		c-3.162-1.767-6.474-3.23-9.639-4.975c-1.811-0.998-3.651-1.931-5.482-2.885c-0.179-0.093-0.34-0.221-0.6-0.392
		c0.68-1.357,1.336-2.695,2.021-4.017c0.332-0.641,0.751-1.237,1.078-1.879c1.01-1.985,1.979-3.991,2.991-5.975
		c1.858-3.641,3.737-7.272,5.606-10.908c0.071-0.138,0.131-0.283,0.211-0.416c0.314-0.521,0.615-0.623,1.158-0.398
		c0.143,0.059,0.289,0.117,0.424,0.192c1.393,0.777,2.785,1.558,4.271,2.39c-2.63,5.844-5.928,11.351-8.655,17.193
		c0.089,0.1,0.162,0.242,0.278,0.304c1.817,0.98,3.638,1.953,5.462,2.92c0.308,0.163,0.634,0.292,1.028,0.471
		c0.562-0.958,1.123-1.819,1.591-2.728c1.162-2.257,2.265-4.544,3.422-6.803c1.037-2.025,2.112-4.031,3.177-6.042
		c0.068-0.129,0.195-0.227,0.354-0.408c0.368,0.148,0.756,0.267,1.107,0.454c1.092,0.583,2.168,1.196,3.254,1.79
		c0.945,0.517,1.025,0.698,0.512,1.702c-0.493,0.965-1.069,1.888-1.563,2.853c-1.109,2.167-2.178,4.356-3.288,6.523
		c-0.778,1.518-1.6,3.013-2.396,4.521c-0.142,0.269-0.254,0.553-0.371,0.809c1.122,1.101,4.68,3.017,8.38,4.524
		c0.168-0.203,0.356-0.428,0.54-0.655c0.032-0.039,0.046-0.092,0.07-0.138c2.15-4.19,4.293-8.385,6.455-12.569
		c0.712-1.377,1.473-2.728,2.22-4.087C99.922,164.904,100.036,164.864,100.118,164.807z"/>
	<path style="fill:#231F20;" d="M384.556,98.455c-1.31,1.663-2.517,3.194-3.768,4.781c-1.13-0.877-2.22-1.728-3.314-2.571
		c-1.752-1.35-3.521-2.679-5.256-4.051c-1.293-1.022-2.53-2.116-3.819-3.142c-0.925-0.736-1.895-1.415-2.832-2.11
		c-0.983,0.287-1.192,1.272-1.792,1.885c-0.607,0.62-1.099,1.361-1.589,2.085c-0.48,0.71-1.384,1.139-1.437,2.217
		c4.603,3.636,9.241,7.3,13.956,11.024c-0.365,0.543-0.683,1.06-1.044,1.543c-0.585,0.783-1.2,1.545-1.802,2.316
		c-0.127,0.163-0.242,0.337-0.383,0.486c-0.395,0.418-0.807,0.458-1.234,0.121c-0.566-0.447-1.12-0.909-1.687-1.354
		c-1.335-1.049-2.68-2.084-4.009-3.139c-1.21-0.961-2.404-1.942-3.606-2.913c-1.162-0.939-2.317-1.886-3.492-2.808
		c-0.233-0.183-0.54-0.271-0.878-0.435c-1.971,2.495-3.912,4.952-5.902,7.473c0.897,1.045,2.118,1.643,3.083,2.544
		c0.971,0.907,2.12,1.623,3.176,2.442c1.057,0.82,2.089,1.673,3.143,2.497c1.054,0.825,2.134,1.617,3.18,2.452
		c1.044,0.834,2.06,1.703,3.172,2.627c-0.972,1.699-2.429,3.082-3.564,4.675c-0.431,0.109-0.734-0.102-1.01-0.324
		c-2.245-1.809-4.468-3.647-6.728-5.437c-1.652-1.309-3.367-2.539-5.024-3.843c-1.74-1.369-3.431-2.801-5.168-4.175
		c-1.169-0.925-2.383-1.794-3.571-2.696c-0.118-0.09-0.189-0.24-0.321-0.414c0.301-0.463,0.567-0.964,0.918-1.396
		c7.228-8.913,14.186-18.041,21.416-27.048c0.437,0.244,0.831,0.392,1.135,0.647c1.893,1.589,3.829,3.118,5.812,4.597
		c1.774,1.323,3.435,2.796,5.174,4.167c1.656,1.305,3.357,2.551,5.021,3.846c1.178,0.917,2.33,1.869,3.485,2.816
		C384.19,98.001,384.34,98.216,384.556,98.455z"/>
	<path style="fill:#231F20;" d="M172.636,394.582c-1.028,1.787-2.133,3.382-3.295,5.002c-1.21-0.556-2.17-1.328-3.188-1.993
		c-4.098-2.676-8.171-5.391-12.256-8.087c-0.08-0.053-0.195-0.054-0.294-0.079c-0.772,0.594-3.712,4.914-4.233,6.256
		c4.716,3.353,9.693,6.358,14.503,9.623c-0.722,1.678-1.832,3.048-2.754,4.53c-0.308,0.496-0.692,0.554-1.194,0.224
		c-1.292-0.85-2.57-1.72-3.855-2.579c-2.827-1.89-5.649-3.787-8.486-5.662c-0.51-0.337-1.079-0.586-1.69-0.913
		c-1.059,1.2-1.806,2.548-2.65,3.823c-0.845,1.275-1.835,2.463-2.486,3.931c1.38,0.943,2.682,1.855,4.006,2.735
		c2.359,1.569,4.729,3.122,7.099,4.675c1.335,0.875,2.684,1.729,4.016,2.609c0.297,0.196,0.601,0.424,0.803,0.708
		c0.123,0.173,0.169,0.553,0.062,0.716c-0.936,1.419-1.912,2.812-2.885,4.206c-0.052,0.075-0.178,0.099-0.331,0.179
		c-7.328-4.993-14.867-9.73-22.296-14.787c0.637-1,1.203-1.92,1.799-2.82c1.623-2.452,3.262-4.894,4.887-7.344
		c3.108-4.687,6.219-9.371,9.311-14.068c1.132-1.72,2.214-3.473,3.365-5.282c0.555,0.177,0.959,0.48,1.376,0.757
		c5.24,3.47,10.478,6.944,15.724,10.405c1.246,0.822,2.524,1.596,3.781,2.401C171.821,393.972,172.146,394.229,172.636,394.582z"/>
	<path style="fill:#231F20;" d="M411.045,179.851c-0.318-0.656-0.59-1.266-0.904-1.853c-0.487-0.91-1.012-1.799-1.506-2.706
		c-1.358-2.495-2.718-4.989-4.055-7.496c-0.265-0.496-0.654-0.619-1.153-0.59c-0.103,0.006-0.21,0.002-0.31,0.025
		c-2.003,0.471-4.036,0.75-6.085,0.917c-0.451,0.037-0.851,0.46-1.338,0.182c-0.493-0.282-0.585-0.832-0.827-1.28
		c-0.811-1.5-1.626-2.998-2.417-4.509c-0.157-0.299-0.215-0.651-0.305-0.936c0.163-0.135,0.24-0.254,0.317-0.254
		c1.343-0.008,2.635-0.539,3.992-0.394c1.113-0.497,2.348-0.166,3.5-0.54c0.817-0.265,1.723-0.123,2.598-0.318
		c1.245-0.276,2.557-0.245,3.834-0.391c1.223-0.139,2.439-0.336,3.657-0.51c0.101-0.014,0.198-0.066,0.3-0.075
		c1.281-0.117,2.566-0.205,3.844-0.351c1.223-0.14,2.438-0.338,3.657-0.513c0.102-0.015,0.199-0.063,0.3-0.073
		c1.229-0.117,2.492-0.093,3.68-0.379c1.317-0.317,2.656-0.274,3.976-0.473c1.411-0.213,2.842-0.538,4.301-0.427
		c0.462,0.035,0.762,0.208,0.978,0.624c0.953,1.835,1.929,3.657,2.888,5.489c0.116,0.222,0.177,0.474,0.267,0.722
		c-0.136,0.199-0.231,0.387-0.369,0.533c-1.065,1.124-2.023,2.335-2.969,3.56c-0.724,0.938-1.564,1.785-2.327,2.693
		c-0.894,1.064-1.751,2.159-2.643,3.225c-0.728,0.87-1.497,1.707-2.225,2.578c-0.793,0.947-1.559,1.916-2.339,2.873
		c-0.586,0.719-1.163,1.446-1.769,2.148c-0.844,0.976-1.729,1.917-2.563,2.901c-0.765,0.903-1.476,1.85-2.228,2.764
		c-0.687,0.837-1.387,1.663-2.098,2.481c-0.847,0.974-1.711,1.932-2.566,2.899c-0.068,0.077-0.119,0.169-0.181,0.252
		c-0.66,0.887-0.879,0.888-1.365-0.018c-1.05-1.954-2.092-3.912-3.144-5.881c0.341-0.552,0.586-1.07,0.939-1.498
		c0.788-0.955,1.636-1.859,2.447-2.796C409.573,181.606,410.295,180.737,411.045,179.851z M410.978,166.309
		c0.828,1.609,1.436,3.043,2.266,4.335c0.824,1.282,1.233,2.802,2.272,4.044c0.227-0.286,0.369-0.492,0.537-0.674
		c1.363-1.478,2.731-2.952,4.098-4.427c0.106-0.114,0.234-0.21,0.323-0.335c1.076-1.515,2.461-2.766,3.596-4.229
		c0.107-0.138,0.139-0.334,0.264-0.649c-0.617,0.047-1.075,0.066-1.527,0.124c-0.25,0.032-0.488,0.167-0.738,0.196
		c-1.069,0.125-2.177,0.099-3.202,0.377c-0.866,0.235-1.735,0.191-2.592,0.356c-1.104,0.212-2.222,0.348-3.333,0.527
		C412.344,166.052,411.748,166.17,410.978,166.309z"/>
	<path style="fill:#231F20;" d="M213.978,439.326c-1.441,2.464-2.867,4.902-4.294,7.343c-2.45-0.438-4.816-0.86-7.29-1.302
		c0.04-0.276,0.004-0.548,0.116-0.729c1.761-2.853,3.56-5.683,5.309-8.543c1.642-2.685,3.214-5.413,4.855-8.099
		c1.775-2.905,3.602-5.778,5.39-8.675c1.003-1.625,1.968-3.272,2.961-4.904c0.266-0.437,0.569-0.851,0.87-1.297
		c0.692-0.026,1.331-0.047,2.013,0.117c1.395,0.335,2.82,0.555,4.241,0.763c1.024,0.15,1.399,0.393,1.589,1.343
		c0.241,1.206,0.423,2.424,0.662,3.631c0.419,2.112,0.859,4.22,1.294,6.329c0.29,1.405,0.591,2.808,0.881,4.212
		c0.447,2.159,0.886,4.319,1.336,6.477c0.272,1.304,0.575,2.602,0.836,3.908c0.462,2.312,0.857,4.636,1.439,6.924
		c0.303,1.191,0.507,2.409,0.731,3.619c0.045,0.241-0.02,0.502-0.035,0.763c-0.528,0.31-1.065,0.27-1.548,0.14
		c-1.543-0.413-3.126-0.589-4.688-0.886c-0.298-0.057-0.583-0.194-0.87-0.302c-0.373-0.141-0.558-0.409-0.625-0.81
		c-0.187-1.111-0.408-2.217-0.61-3.325c-0.248-1.36-0.491-2.721-0.751-4.162C223.233,440.858,218.621,440.184,213.978,439.326z
		 M223.933,422.35c-0.239,0.334-0.374,0.493-0.476,0.67c-1.96,3.382-3.916,6.765-5.869,10.15c-0.049,0.086-0.059,0.198-0.072,0.3
		c-0.006,0.047,0.019,0.101,0.039,0.147c0.019,0.046,0.05,0.087,0.102,0.172c1.366,0.258,2.756,0.6,4.167,0.764
		c1.45,0.169,2.863,0.712,4.436,0.564c0.031-0.323,0.108-0.58,0.07-0.818c-0.586-3.682-1.42-7.321-1.929-11.018
		C224.368,423.042,224.176,422.823,223.933,422.35z"/>
	<path style="fill:#231F20;" d="M74.577,203.174c0.146-0.336,0.229-0.639,0.393-0.888c1.02-1.551,2.053-3.094,3.093-4.633
		c0.403-0.596,0.698-0.658,1.281-0.27c1.423,0.946,2.815,1.954,3.892,3.286c1.372,1.697,2.4,3.593,2.871,5.759
		c0.411,1.889,0.417,3.753,0.07,5.669c-0.334,1.84-0.829,3.604-1.599,5.3c-0.663,1.461-1.424,2.86-2.605,3.977
		c-0.787,0.744-1.54,1.51-2.418,2.174c-2.177,1.644-4.717,2.245-7.279,2.841c-1.853-0.084-3.698,0.152-5.568-0.214
		c-1.776-0.348-3.514-0.773-5.216-1.358c-1.96-0.675-3.806-1.593-5.541-2.732c-2.475-1.626-4.402-3.749-5.602-6.451
		c-0.663-1.494-1.354-3.015-1.339-4.722c0.002-0.249-0.124-0.496-0.165-0.748c-0.057-0.355-0.176-0.728-0.119-1.068
		c0.304-1.818,0.33-3.682,0.957-5.447c0.623-1.754,1.262-3.485,2.332-5.04c1.905-2.768,4.494-4.668,7.619-5.504
		c1.362-0.364,2.731-0.455,4.205-0.27c0.254,0.843,0.115,1.671,0.138,2.482c0.022,0.778,0.06,1.563-0.014,2.335
		c-0.078,0.809-0.281,1.605-0.446,2.494c-0.291,0.029-0.588,0.075-0.887,0.086c-2.192,0.079-4.033,0.967-5.405,2.63
		c-0.846,1.025-1.47,2.241-1.663,3.614c-0.086,0.608-0.285,1.211-0.29,1.818c-0.017,2.153,0.727,3.997,2.224,5.588
		c1.578,1.676,3.584,2.609,5.634,3.459c1.904,0.79,3.939,1.229,5.963,1.517c1.671,0.238,3.429,0.298,5.076-0.273
		c1.903-0.661,3.457-1.785,4.46-3.623c0.604-1.107,0.925-2.282,1.199-3.484c0.202-0.885-0.023-1.749-0.28-2.587
		c-0.335-1.091-0.789-2.125-1.616-2.961c-0.838-0.848-1.676-1.689-2.734-2.274C74.982,203.535,74.803,203.351,74.577,203.174z"/>
	<path style="fill:#231F20;" d="M327.086,90.902c0.136-0.007,0.206,0.012,0.237-0.015c1.057-0.905,2.168-1.754,3.154-2.731
		c5.121-5.079,10.209-10.191,15.311-15.289c0.4-0.399,0.817-0.781,1.196-1.143c1.778,0.573,6.021,2.772,6.817,3.552
		c-0.17,0.221-0.3,0.536-0.534,0.67c-0.872,0.501-1.51,1.253-2.209,1.94c-0.924,0.91-1.78,1.899-2.765,2.737
		c-2.449,2.085-4.566,4.521-6.982,6.622c-1.921,1.671-3.592,3.586-5.508,5.241c-2.434,2.103-4.646,4.427-6.957,6.652
		c-0.889,0.856-1.884,1.601-2.847,2.411c-1.102-0.329-5.452-2.451-7.051-3.453c-0.008-0.177-0.094-0.419-0.014-0.579
		c0.318-0.636,0.142-1.341,0.304-1.972c0.31-1.205,0.105-2.472,0.524-3.652c0.051-0.143,0.069-0.306,0.062-0.458
		c-0.035-0.833,0.124-1.632,0.288-2.446c0.15-0.747,0.108-1.517,0.286-2.289c0.262-1.142,0.236-2.347,0.377-3.52
		c0.146-1.22,0.343-2.433,0.52-3.649c0.022-0.153,0.077-0.303,0.084-0.456c0.081-1.644,0.316-3.264,0.601-4.885
		c0.204-1.16,0.146-2.368,0.372-3.522c0.237-1.212,0.142-2.464,0.512-3.652c0.046-0.146,0.064-0.303,0.078-0.457
		c0.111-1.228,0.19-2.46,0.334-3.685c0.107-0.909,0.296-1.807,0.464-2.806c0.259,0.08,0.509,0.118,0.722,0.228
		c2.06,1.064,4.183,2.006,6.205,3.146c0.06,0.954,0.154,1.796-0.13,2.68c-0.263,0.821-0.158,1.722-0.376,2.588
		c-0.248,0.986-0.104,2.078-0.395,3.044c-0.349,1.158-0.147,2.351-0.493,3.507c-0.29,0.969-0.263,2.031-0.406,3.047
		c-0.156,1.115-0.346,2.225-0.519,3.337c-0.142,0.912-0.2,1.832-0.38,2.745c-0.218,1.103-0.106,2.28-0.388,3.359
		C327.305,88.8,327.47,89.873,327.086,90.902z"/>
	<path style="fill:#231F20;" d="M115.373,382.803c8.336-3.865,16.061-8.262,24.155-12.126c1.635,1.897,3.761,3.232,5.426,5.177
		c-0.247,0.205-0.379,0.368-0.551,0.45c-1.631,0.778-3.277,1.528-4.903,2.316c-1.677,0.813-3.332,1.671-5.007,2.488
		c-3.346,1.632-6.697,3.254-10.05,4.873c-2.327,1.124-4.656,2.243-6.991,3.351c-1.867,0.886-3.75,1.74-5.612,2.635
		c-0.469,0.226-0.872,0.316-1.271-0.087c-1.57-1.586-3.141-3.17-4.706-4.761c-0.064-0.065-0.067-0.191-0.099-0.288
		c0.012-0.102-0.001-0.216,0.04-0.304c0.85-1.828,1.717-3.648,2.557-5.48c0.946-2.064,1.869-4.139,2.804-6.209
		c0.043-0.094,0.1-0.182,0.145-0.276c1.16-2.427,2.339-4.844,3.473-7.283c0.892-1.918,1.696-3.877,2.596-5.792
		c1.276-2.715,2.602-5.407,3.912-8.107c0.064-0.131,0.179-0.236,0.323-0.42c0.181,0.112,0.372,0.186,0.506,0.319
		c1.439,1.424,2.858,2.869,4.308,4.282c0.478,0.465,0.58,0.886,0.267,1.51c-0.693,1.385-1.284,2.822-1.961,4.216
		c-2.148,4.424-4.33,8.832-6.471,13.259C117.316,378.5,116.439,380.486,115.373,382.803z"/>
	<path style="fill:#231F20;" d="M158.105,69.229c0.988-0.517,1.925-1.043,2.934-1.435c0.384-0.149,0.765-0.307,1.14-0.477
		c2.303-1.046,4.603-2.097,6.904-3.147c0.188-0.086,0.372-0.181,0.559-0.27c2.101-0.996,4.2-1.998,6.306-2.985
		c1.168-0.548,2.344-1.081,3.526-1.598c0.366-0.16,0.766-0.244,1.227-0.387c1.053,1.68,1.53,3.561,2.573,5.256
		c-0.269,0.213-0.472,0.446-0.729,0.566c-2.479,1.159-4.966,2.297-7.451,3.443c-1.407,0.649-2.818,1.29-4.219,1.952
		c-1.114,0.526-2.215,1.078-3.395,1.655c0.966,2.378,2.034,4.713,3.153,7.026c0.083,0.172,0.27,0.295,0.477,0.511
		c1.507-0.691,3.002-1.375,4.496-2.063c1.454-0.67,2.903-1.351,4.361-2.013c1.495-0.679,2.998-1.341,4.558-2.037
		c1.212,1.702,1.718,3.66,2.664,5.466c-1.175,0.809-2.366,1.302-3.527,1.848c-0.231,0.109-0.493,0.153-0.725,0.261
		c-1.826,0.852-3.645,1.72-5.473,2.568c-0.936,0.434-1.889,0.831-2.827,1.261c-0.321,0.148-0.619,0.348-0.977,0.552
		c0.295,1.321,1.068,2.384,1.509,3.581c0.428,1.16,1.074,2.239,1.598,3.365c0.544,1.169,1.052,2.354,1.582,3.53
		c0.506,1.122,1.018,2.241,1.566,3.444c-0.826,0.418-1.598,0.827-2.386,1.201c-1.026,0.487-2.065,0.945-3.098,1.416
		c-0.188,0.086-0.372,0.185-0.566,0.255c-0.449,0.164-0.858,0.014-1.042-0.398c-1.222-2.731-2.435-5.466-3.657-8.197
		c-0.148-0.331-0.337-0.643-0.487-0.973c-0.98-2.162-1.952-4.328-2.932-6.49c-0.171-0.378-0.376-0.74-0.547-1.117
		c-0.96-2.114-1.914-4.231-2.871-6.347c-0.064-0.142-0.143-0.276-0.21-0.417c-1.023-2.146-2.058-4.288-3.062-6.443
		C158.712,70.852,158.444,70.077,158.105,69.229z"/>
	<path style="fill:#231F20;" d="M107.361,106.903c0.94-0.931,1.637-1.915,2.719-2.49c0.089-0.047,0.159-0.132,0.236-0.202
		c1.221-1.115,2.435-2.239,3.666-3.342c0.652-0.585,1.344-1.125,2.002-1.702c0.62-0.543,1.099-1.247,1.879-1.611
		c0.179-0.084,0.308-0.274,0.461-0.414c1.22-1.116,2.405-2.274,3.67-3.337c1.818-1.529,3.624-3.067,5.339-4.714
		c0.476-0.457,1.069-0.792,1.657-1.218c0.314,0.28,0.694,0.503,0.911,0.834c0.718,1.098,1.705,1.941,2.586,2.885
		c0.482,0.516,0.469,0.82,0.012,1.345c-0.034,0.039-0.069,0.078-0.108,0.112c-1.321,1.152-2.643,2.304-3.966,3.454
		c-0.077,0.067-0.181,0.105-0.256,0.174c-0.951,0.868-1.898,1.74-2.912,2.672c0.203,0.583,0.559,1.118,1.019,1.609
		c1.238,1.32,2.503,2.618,3.67,3.999c1.433,1.695,2.906,3.352,4.376,5.015c1.537,1.74,3.015,3.53,4.612,5.222
		c1.023,1.084,1.914,2.291,2.867,3.441c0.099,0.12,0.216,0.224,0.32,0.34c0.858,0.959,1.715,1.919,2.546,2.85
		c-0.39,0.766-1.376,2.032-2.145,2.493c-0.778,0.466-1.347,1.127-1.982,1.731c-0.378,0.36-0.729,0.743-1.321,0.742
		c-0.12-0.155-0.235-0.328-0.374-0.479c-1.295-1.408-2.718-2.721-3.854-4.246c-0.932-1.251-2.251-2.152-2.999-3.539
		c-0.024-0.044-0.07-0.076-0.105-0.114c-1.189-1.294-2.386-2.581-3.563-3.887c-0.551-0.612-1.051-1.27-1.593-1.892
		c-0.508-0.583-1.178-1.026-1.498-1.769c-0.039-0.091-0.128-0.162-0.198-0.238c-1.151-1.258-2.309-2.511-3.452-3.777
		c-0.344-0.381-0.646-0.799-0.963-1.203c-0.319-0.406-0.664-0.782-1.21-1.095c-0.83,0.701-1.632,1.42-2.477,2.083
		c-1.503,1.179-2.761,2.639-4.325,3.748c-0.414,0.293-0.764,0.676-1.217,1.084C110.047,109.946,108.76,108.489,107.361,106.903z"/>
	<path style="fill:#231F20;" d="M165.182,107.332c-2.049,1.364-4.015,2.674-6.036,4.02c-0.264-0.299-0.531-0.542-0.726-0.832
		c-1.382-2.051-2.758-4.107-4.12-6.172c-1.787-2.711-3.561-5.43-5.337-8.148c-1.946-2.976-3.889-5.955-5.832-8.933
		c-1.183-1.812-2.37-3.622-3.54-5.443c-0.162-0.251-0.237-0.558-0.376-0.895c1.981-1.346,3.908-2.693,6.06-3.878
		c2.433,3.282,4.481,6.73,6.705,10.058c2.204,3.299,4.366,6.627,6.534,9.95C160.71,100.426,162.891,103.801,165.182,107.332z"/>
	<path style="fill:#231F20;" d="M193.987,54.821c0.513-0.194,0.981-0.401,1.468-0.549c1.523-0.465,3.051-0.916,4.581-1.358
		c0.787-0.227,1.162,0.009,1.372,0.775c0.651,2.376,1.311,4.748,1.971,7.122c0.7,2.521,1.396,5.043,2.108,7.561
		c0.642,2.273,1.313,4.537,1.955,6.81c0.711,2.518,1.398,5.042,2.104,7.562c0.36,1.285,0.749,2.561,1.102,3.847
		c0.079,0.288,0.067,0.6,0.103,0.963c-1.073,0.608-2.26,0.754-3.371,1.106c-1.073,0.34-2.169,0.61-3.209,0.899
		c-0.727-0.369-0.698-1.077-0.859-1.636c-0.88-3.057-1.682-6.137-2.554-9.196c-1.097-3.851-2.331-7.665-3.333-11.54
		C196.372,63.113,195.102,59.103,193.987,54.821z"/>
	<path style="fill:#231F20;" d="M289.677,440.034c2.054-0.693,4.103-1.116,6.257-1.484c0.168,0.365,0.402,0.71,0.49,1.088
		c0.415,1.778,0.79,3.566,1.193,5.413c-2.115,0.714-4.284,1.029-6.379,1.548C290.531,445.312,289.63,441.566,289.677,440.034z"/>
</g>
</svg>
